<?xml version="1.0" encoding="utf-8"?>
<!-- Generator: Adobe Illustrator 16.0.0, SVG Export Plug-In . SVG Version: 6.00 Build 0)  -->
<!DOCTYPE svg PUBLIC "-//W3C//DTD SVG 1.1//EN" "http://www.w3.org/Graphics/SVG/1.1/DTD/svg11.dtd">
<svg version="1.1" id="Layer_1" xmlns="http://www.w3.org/2000/svg" xmlns:xlink="http://www.w3.org/1999/xlink" x="0px" y="0px"
	 width="200px" height="60px" viewBox="0 0 200 60" enable-background="new 0 0 200 60" xml:space="preserve">
<path fill="#4BB3B3" d="M39.275,54.891c-0.054-0.012-0.105-0.034-0.16-0.035c-0.95-0.052-1.89-0.167-2.806-0.432
	c-2.36-0.678-4.26-2.021-5.75-3.96c-1.088-1.416-1.807-3.011-2.281-4.726c-0.405-1.461-0.611-2.95-0.656-4.466
	c-0.029-0.999-0.006-1.994,0.109-2.989c0.31-2.637,1.072-5.122,2.579-7.339c1.354-1.992,3.144-3.438,5.412-4.266
	c1.162-0.426,2.37-0.604,3.604-0.624c1.28-0.021,2.542,0.106,3.781,0.439c1.727,0.466,3.247,1.303,4.524,2.558
	c0.369,0.364,0.701,0.764,1.048,1.149c0.032,0.035,0.045,0.083,0.068,0.124c0.022-0.013,0.045-0.025,0.068-0.037v-0.258
	c0-4.034,0-8.068,0.002-12.102c0-0.138-0.004-0.282,0.033-0.411c0.115-0.417,0.381-0.688,0.816-0.773
	c0.028-0.006,0.055-0.027,0.082-0.042h1.218c0.036,0.014,0.072,0.033,0.109,0.041c0.476,0.089,0.822,0.472,0.861,0.956
	c0.006,0.089,0.003,0.179,0.003,0.269c0,11.698,0,23.396,0,35.095c0,0.121,0.005,0.245-0.018,0.363
	c-0.1,0.52-0.516,0.869-1.047,0.88c-0.333,0.008-0.667,0.008-0.999,0c-0.609-0.012-1.055-0.459-1.06-1.074
	c-0.007-0.826-0.002-1.653-0.002-2.482v-0.306c-0.088,0.1-0.14,0.152-0.187,0.211c-0.949,1.174-2.068,2.149-3.401,2.869
	c-1.125,0.607-2.323,0.993-3.588,1.17c-0.552,0.076-1.112,0.108-1.669,0.163c-0.037,0.004-0.073,0.023-0.11,0.035H39.275z
	 M48.815,40.281c-0.013-0.907-0.077-1.915-0.243-2.919c-0.204-1.24-0.538-2.44-1.119-3.559c-0.979-1.88-2.42-3.264-4.409-4.029
	c-1.538-0.587-3.137-0.717-4.767-0.516C36.474,29.48,35,30.33,33.76,31.623c-1.025,1.066-1.712,2.34-2.186,3.728
	c-0.607,1.776-0.868,3.604-0.836,5.479c0.02,1.141,0.148,2.267,0.4,3.377c0.347,1.526,0.906,2.962,1.81,4.249
	c1.041,1.476,2.411,2.507,4.157,3.002c1.243,0.354,2.51,0.392,3.787,0.228c1.869-0.236,3.436-1.079,4.753-2.399
	c1.018-1.019,1.735-2.239,2.248-3.58C48.547,43.993,48.819,42.216,48.815,40.281"/>
<path fill="#4BB3B3" d="M3.375,46.414c0.032-0.221,0.076-0.442,0.094-0.661c0.067-0.781,0.196-1.547,0.469-2.283
	c0.66-1.772,1.83-3.096,3.513-3.967c0.908-0.468,1.877-0.752,2.882-0.932c1.222-0.22,2.456-0.332,3.697-0.399
	c1.481-0.08,2.964-0.178,4.443-0.29c0.751-0.059,1.499-0.181,2.217-0.427c0.213-0.072,0.422-0.167,0.62-0.273
	c0.416-0.226,0.682-0.572,0.775-1.036c0.043-0.209,0.082-0.418,0.091-0.626c0.042-0.879-0.022-1.752-0.18-2.616
	c-0.232-1.286-0.93-2.24-2.066-2.883c-0.762-0.432-1.585-0.65-2.448-0.752c-0.945-0.112-1.893-0.128-2.841-0.047
	c-0.909,0.08-1.8,0.249-2.648,0.597c-1.833,0.753-3.002,2.102-3.545,4c-0.166,0.578-0.271,1.17-0.302,1.771
	c-0.035,0.707-0.586,1.12-1.158,1.087c-0.308-0.021-0.616,0-0.925-0.006c-0.607-0.01-1.078-0.502-1.048-1.108
	c0.068-1.364,0.36-2.683,0.916-3.932c0.834-1.877,2.176-3.287,3.983-4.255c1.171-0.626,2.419-1.007,3.734-1.185
	c1.197-0.16,2.396-0.185,3.595-0.079c1.142,0.099,2.272,0.28,3.337,0.731c2.461,1.043,3.943,2.903,4.518,5.5
	c0.165,0.747,0.222,1.508,0.224,2.272c0,5.301,0,10.602,0,15.902c0,0.123,0.014,0.244,0.014,0.365
	c-0.001,0.18,0.104,0.273,0.262,0.297c0.248,0.034,0.498,0.071,0.748,0.069c0.339-0.002,0.68-0.027,1.019-0.064
	c0.619-0.067,1.199,0.405,1.189,1.117c-0.004,0.3,0.002,0.6-0.001,0.897c-0.01,0.65-0.458,1.099-1.11,1.105
	c-0.518,0.004-1.039,0.009-1.557,0c-0.708-0.015-1.381-0.17-2.019-0.482c-0.9-0.441-1.404-1.172-1.588-2.141
	c-0.032-0.167-0.048-0.335-0.076-0.528c-0.044,0.031-0.084,0.05-0.113,0.078c-1.624,1.687-3.612,2.721-5.871,3.267
	c-0.91,0.22-1.836,0.317-2.77,0.357c-0.045,0.001-0.091,0.021-0.136,0.035h-0.583c-0.038-0.012-0.074-0.035-0.111-0.035
	c-0.729-0.026-1.456-0.09-2.176-0.213c-1.166-0.192-2.281-0.544-3.321-1.119c-1.053-0.579-1.948-1.335-2.595-2.366
	c-0.618-0.979-0.933-2.058-1.054-3.2c-0.021-0.207-0.063-0.411-0.095-0.617V46.414z M22.161,40.258
	c-0.059,0.016-0.104,0.027-0.149,0.044c-1.152,0.416-2.347,0.642-3.56,0.745c-1.099,0.096-2.202,0.143-3.302,0.193
	c-1.338,0.063-2.674,0.133-3.997,0.351c-0.673,0.11-1.336,0.257-1.964,0.535c-1.109,0.495-1.91,1.292-2.299,2.442
	c-0.397,1.174-0.46,2.383-0.198,3.6c0.218,1.008,0.756,1.803,1.603,2.385c0.674,0.465,1.415,0.786,2.211,0.974
	c0.867,0.206,1.747,0.261,2.634,0.246c1.531-0.022,2.994-0.318,4.362-1.028c2.903-1.506,4.407-3.937,4.659-7.152
	c0.085-1.081,0.019-2.173,0.021-3.26C22.182,40.316,22.174,40.301,22.161,40.258"/>
<path fill="#4BB3B3" d="M149.666,54.891c-0.069-0.015-0.139-0.031-0.21-0.035c-1.552-0.078-3.061-0.35-4.481-1.002
	c-1.213-0.556-2.311-1.286-3.274-2.209c-1.712-1.638-2.839-3.629-3.53-5.879c-0.458-1.498-0.7-3.031-0.757-4.597
	c-0.079-2.194,0.202-4.34,0.9-6.422c0.62-1.855,1.559-3.529,2.91-4.957c1.805-1.906,3.974-3.167,6.591-3.573
	c2.09-0.323,4.157-0.226,6.173,0.468c1.566,0.537,2.937,1.407,4.143,2.532c1.757,1.643,2.91,3.655,3.614,5.939
	c0.381,1.229,0.611,2.489,0.72,3.769c0.023,0.29,0.015,0.585,0.026,0.877c0.001,0.063,0.021,0.122,0.033,0.183v0.975
	c-0.012,0.052-0.033,0.106-0.033,0.159c0.001,1.148-0.156,2.278-0.407,3.396c-0.469,2.09-1.288,4.025-2.604,5.73
	c-1.346,1.749-3.045,3.037-5.103,3.846c-1.273,0.499-2.606,0.698-3.965,0.765c-0.072,0.004-0.143,0.021-0.21,0.035H149.666z
	 M159.382,40.499c0-0.25,0.012-0.503-0.002-0.753c-0.062-1.379-0.307-2.723-0.753-4.028c-0.563-1.649-1.438-3.104-2.736-4.281
	c-1.106-1.002-2.368-1.726-3.842-2.046c-0.981-0.214-1.976-0.265-2.978-0.177c-1.118,0.098-2.185,0.373-3.18,0.91
	c-1.899,1.022-3.264,2.543-4.155,4.492c-0.896,1.959-1.245,4.032-1.206,6.178c0.02,1.043,0.138,2.07,0.368,3.089
	c0.341,1.502,0.9,2.909,1.8,4.171c1.056,1.482,2.416,2.58,4.126,3.206c1.528,0.561,3.107,0.635,4.705,0.401
	c1.846-0.269,3.401-1.127,4.714-2.436c0.915-0.91,1.594-1.981,2.09-3.171C159.077,44.277,159.388,42.415,159.382,40.499"/>
<path fill="#4BB3B3" d="M133.433,16.701c0.034,0.014,0.067,0.036,0.106,0.044c0.489,0.121,0.817,0.517,0.817,1.017
	c0.004,1.681,0.004,3.361,0,5.041c0,0.591-0.456,1.045-1.049,1.057c-0.334,0.007-0.666,0.004-0.999,0
	c-0.622-0.008-1.066-0.46-1.067-1.084c-0.003-1.656,0.008-3.311-0.007-4.968c-0.004-0.437,0.312-0.992,0.874-1.069
	c0.02-0.003,0.039-0.024,0.058-0.038H133.433z"/>
<path fill="#4BB3B3" d="M58.796,29.598c0.418-0.489,0.874-0.939,1.377-1.338c1.254-1.001,2.676-1.64,4.244-1.96
	c1.517-0.314,3.045-0.335,4.573-0.094c1.893,0.3,3.598,1.016,5.036,2.309c1.187,1.069,1.992,2.383,2.503,3.884
	c0.352,1.038,0.519,2.106,0.568,3.2c0.009,0.227,0.016,0.454,0.016,0.682c0.001,5.61,0.001,11.22,0,16.829
	c0,0.12-0.007,0.244-0.032,0.361c-0.103,0.473-0.498,0.813-0.982,0.83c-0.366,0.015-0.732,0.015-1.097-0.001
	c-0.572-0.022-0.997-0.475-1.004-1.05c-0.004-0.184,0-0.372,0-0.559c0-5.413,0.001-10.829-0.004-16.243
	c-0.001-0.993-0.087-1.979-0.405-2.931c-0.719-2.143-2.16-3.517-4.366-4.065c-1.491-0.373-2.99-0.399-4.479-0.01
	c-1.773,0.466-3.171,1.489-4.215,2.992c-0.781,1.123-1.248,2.377-1.527,3.708c-0.19,0.908-0.266,1.831-0.267,2.756
	c-0.003,4.709,0,9.418,0,14.126c0,0.082,0,0.163-0.003,0.242c-0.018,0.574-0.448,1.016-1.021,1.038
	c-0.356,0.009-0.715,0.009-1.072,0c-0.541-0.02-0.966-0.429-1.016-0.967c-0.009-0.091-0.007-0.179-0.007-0.269
	c0-8.402,0-16.804,0.002-25.207c0-0.151,0.006-0.313,0.045-0.459c0.12-0.443,0.526-0.747,0.994-0.756
	c0.341-0.006,0.682-0.005,1.023,0c0.595,0.009,1.045,0.456,1.053,1.05c0.007,0.546,0.002,1.089,0.003,1.633v0.255
	C58.755,29.59,58.776,29.594,58.796,29.598"/>
<path fill="#4BB3B3" d="M114.388,40.02c-0.246-0.329-0.487-0.653-0.731-0.977c-2.212-2.937-4.427-5.871-6.643-8.807
	c-0.46-0.608-0.917-1.216-1.38-1.826c-0.285-0.379-0.345-0.783-0.12-1.207c0.19-0.358,0.505-0.546,0.911-0.555
	c0.444-0.012,0.893-0.008,1.338-0.001c0.365,0.007,0.649,0.176,0.864,0.468c0.794,1.07,1.589,2.137,2.382,3.207
	c1.735,2.339,3.473,4.679,5.21,7.018c0.031,0.045,0.068,0.086,0.118,0.144c0.06-0.067,0.115-0.124,0.16-0.187
	c2.112-2.776,4.222-5.556,6.332-8.335c0.472-0.622,0.945-1.241,1.415-1.862c0.23-0.307,0.538-0.456,0.92-0.455
	c0.367,0.004,0.731,0.002,1.097,0c0.445-0.001,0.791,0.179,0.995,0.576c0.21,0.408,0.159,0.801-0.117,1.164
	c-1.057,1.398-2.117,2.795-3.177,4.193c-1.836,2.426-3.676,4.852-5.514,7.275c-0.038,0.051-0.073,0.105-0.12,0.171
	c0.188,0.245,0.374,0.49,0.563,0.732c3.032,3.914,6.062,7.827,9.093,11.74c0.172,0.218,0.288,0.451,0.285,0.733
	c-0.001,0.58-0.429,1.048-1.009,1.07c-0.446,0.017-0.893,0.013-1.339,0.001c-0.344-0.009-0.615-0.171-0.826-0.445
	c-0.971-1.261-1.947-2.518-2.92-3.775c-1.896-2.452-3.792-4.907-5.687-7.358c-0.044-0.057-0.092-0.11-0.154-0.182
	c-0.064,0.075-0.123,0.139-0.176,0.207c-2.479,3.224-4.955,6.447-7.434,9.671c-0.36,0.468-0.729,0.936-1.085,1.41
	c-0.249,0.328-0.571,0.487-0.982,0.479c-0.343-0.011-0.684-0.007-1.024-0.003c-0.464,0.007-0.827-0.175-1.033-0.596
	c-0.205-0.421-0.129-0.819,0.153-1.185c1.113-1.439,2.221-2.88,3.331-4.319l6.197-8.042
	C114.316,40.119,114.348,40.075,114.388,40.02"/>
<path fill="#4BB3B3" d="M131.238,40.465c0-4.236,0.003-8.474,0-12.712c0-0.469,0.205-0.813,0.63-1.01
	c0.134-0.061,0.294-0.086,0.446-0.092c0.323-0.015,0.647-0.008,0.973-0.003c0.61,0.007,1.062,0.456,1.07,1.062
	c0,0.048,0,0.098,0,0.147c0,8.409,0,16.821-0.001,25.23c0,0.12,0.004,0.247-0.02,0.365c-0.094,0.479-0.506,0.833-0.994,0.85
	c-0.357,0.012-0.714,0.012-1.071,0.003c-0.596-0.02-1.03-0.476-1.03-1.075c-0.003-2.444-0.003-4.891-0.003-7.334V40.465z"/>
<path fill="#4BB3B3" d="M90.619,54.11c-3.328,0-6.654,0-9.981-0.003c-0.155,0-0.313-0.004-0.46-0.038
	c-0.408-0.099-0.736-0.456-0.762-0.882c-0.027-0.426-0.029-0.86,0-1.286c0.03-0.443,0.38-0.801,0.813-0.888
	c0.126-0.024,0.258-0.036,0.386-0.036c6.681-0.003,13.358-0.003,20.039,0c0.123,0,0.243,0.012,0.361,0.032
	c0.487,0.095,0.837,0.497,0.854,0.991c0.012,0.361,0.012,0.729,0,1.094c-0.018,0.517-0.411,0.936-0.927,1
	c-0.111,0.013-0.228,0.013-0.34,0.013C97.274,54.11,93.947,54.11,90.619,54.11"/>
<path fill="#4BB3B3" d="M90.642,27.156c3.36,0,6.721-0.001,10.08,0.001c0.129,0,0.262,0.002,0.385,0.037
	c0.45,0.124,0.751,0.517,0.763,0.987c0.008,0.348,0.008,0.697,0,1.046c-0.012,0.568-0.446,1.011-1.015,1.044
	c-0.059,0.002-0.117,0-0.173,0c-6.703,0-13.408,0-20.111,0.002c-0.224,0-0.438-0.03-0.632-0.142c-0.3-0.173-0.5-0.427-0.522-0.776
	c-0.026-0.404-0.027-0.809-0.012-1.214c0.022-0.615,0.573-0.994,1.084-0.992c3.002,0.012,6.006,0.006,9.009,0.006H90.642z"/>
<path fill="#4BB3B3" d="M88.524,39.064c2.305,0,4.611,0.001,6.917,0c0.456,0,0.803,0.188,1.006,0.598
	c0.07,0.14,0.104,0.309,0.111,0.465c0.016,0.333,0.009,0.666,0.002,0.999c-0.009,0.591-0.431,1.023-1.021,1.059
	c-0.09,0.004-0.178,0.004-0.268,0.004c-4.496,0-8.994,0.003-13.49,0c-0.145,0-0.294,0.003-0.437-0.024
	c-0.49-0.102-0.828-0.511-0.846-1.025c-0.01-0.342-0.012-0.683,0-1.023c0.023-0.618,0.482-1.05,1.113-1.05
	C83.916,39.064,86.219,39.064,88.524,39.064"/>
<g>
	<path fill="#8E8E8E" d="M167.174,16.497c0,1.841-0.408,3.302-1.223,4.383s-1.91,1.621-3.285,1.621
		c-1.646,0-2.891-0.611-3.734-1.834l-0.055,1.616h-1.223V5.515h1.299v6.67c0.83-1.289,2.061-1.933,3.689-1.933
		c1.398,0,2.502,0.533,3.314,1.6c0.811,1.066,1.217,2.549,1.217,4.448V16.497z M165.863,16.268c0-1.557-0.301-2.76-0.906-3.608
		c-0.604-0.848-1.455-1.271-2.555-1.271c-0.836,0-1.545,0.206-2.127,0.617c-0.584,0.411-1.023,1.013-1.322,1.807v5.327
		c0.656,1.485,1.813,2.227,3.473,2.227c1.076,0,1.918-0.426,2.527-1.277C165.561,19.237,165.863,17.963,165.863,16.268z"/>
	<path fill="#8E8E8E" d="M174.631,22.501c-1.006,0-1.912-0.247-2.725-0.742c-0.811-0.495-1.443-1.185-1.895-2.069
		s-0.676-1.875-0.676-2.975v-0.47c0-1.135,0.219-2.158,0.66-3.067c0.439-0.91,1.053-1.625,1.84-2.145
		c0.785-0.521,1.637-0.781,2.555-0.781c1.434,0,2.57,0.49,3.41,1.468c0.842,0.979,1.262,2.316,1.262,4.012v0.731h-8.428v0.251
		c0,1.339,0.383,2.455,1.152,3.346c0.768,0.892,1.732,1.337,2.898,1.337c0.697,0,1.314-0.127,1.85-0.382
		c0.535-0.255,1.021-0.663,1.457-1.223l0.818,0.622C177.85,21.806,176.457,22.501,174.631,22.501z M174.391,11.366
		c-0.982,0-1.811,0.36-2.484,1.081c-0.674,0.721-1.082,1.688-1.229,2.904h7.086v-0.142c-0.037-1.136-0.361-2.06-0.973-2.773
		S175.379,11.366,174.391,11.366z"/>
	<path fill="#8E8E8E" d="M183.637,7.447v3.024h2.445v1.07h-2.445v7.879c0,0.656,0.117,1.144,0.354,1.464
		c0.236,0.321,0.633,0.481,1.186,0.481c0.219,0,0.57-0.036,1.059-0.109l0.055,1.061c-0.342,0.122-0.809,0.184-1.396,0.184
		c-0.896,0-1.547-0.26-1.955-0.78c-0.408-0.521-0.611-1.287-0.611-2.298v-7.881h-2.172v-1.07h2.172V7.447H183.637z"/>
	<path fill="#8E8E8E" d="M196.244,22.283c-0.131-0.371-0.215-0.92-0.25-1.648c-0.459,0.597-1.043,1.057-1.752,1.381
		c-0.711,0.324-1.463,0.486-2.256,0.486c-1.135,0-2.053-0.316-2.756-0.95s-1.053-1.434-1.053-2.402c0-1.149,0.479-2.059,1.436-2.729
		c0.957-0.669,2.289-1.004,4-1.004h2.369v-1.343c0-0.844-0.26-1.508-0.781-1.992c-0.52-0.484-1.279-0.726-2.275-0.726
		c-0.91,0-1.662,0.233-2.26,0.699c-0.598,0.466-0.895,1.026-0.895,1.681l-1.311-0.011c0-0.939,0.438-1.752,1.311-2.44
		c0.873-0.688,1.945-1.032,3.221-1.032c1.316,0,2.355,0.33,3.115,0.988c0.762,0.659,1.152,1.577,1.174,2.756v5.589
		c0,1.143,0.121,1.998,0.361,2.565v0.131H196.244z M192.141,21.344c0.873,0,1.652-0.211,2.34-0.633
		c0.689-0.422,1.189-0.986,1.502-1.692V16.42h-2.336c-1.303,0.015-2.322,0.253-3.057,0.715c-0.734,0.462-1.104,1.097-1.104,1.905
		c0,0.662,0.246,1.212,0.738,1.648C190.715,21.125,191.354,21.344,192.141,21.344z"/>
</g>
</svg>
