<svg xmlns="http://www.w3.org/2000/svg" xmlns:xlink="http://www.w3.org/1999/xlink" viewBox="0 0 276 236">
  <defs>
    <style>
      .cls-1 {
        clip-path: url(#clip-img_resume_website);
      }

      .cls-2 {
        fill: #abb3d9;
      }

      .cls-3 {
        fill: #9aa4b5;
      }

      .cls-4 {
        fill: url(#linear-gradient);
      }

      .cls-5 {
        fill: url(#linear-gradient-2);
      }

      .cls-6 {
        fill: url(#linear-gradient-3);
      }

      .cls-7 {
        fill: url(#linear-gradient-4);
      }

      .cls-8 {
        fill: url(#linear-gradient-5);
      }

      .cls-9 {
        fill: url(#linear-gradient-6);
      }

      .cls-10 {
        fill: url(#linear-gradient-7);
      }

      .cls-11 {
        fill: #fff;
      }

      .cls-12 {
        fill: url(#linear-gradient-8);
      }

      .cls-13 {
        fill: url(#linear-gradient-9);
      }

      .cls-14 {
        fill: url(#linear-gradient-10);
      }

      .cls-15 {
        fill: url(#linear-gradient-11);
      }

      .cls-16 {
        fill: url(#linear-gradient-12);
      }

      .cls-17 {
        fill: url(#linear-gradient-15);
      }

      .cls-18 {
        fill: url(#radial-gradient);
      }

      .cls-19 {
        fill: #f0deff;
      }

      .cls-20 {
        fill: #a642fc;
      }

      .cls-21 {
        fill: #575757;
      }

      .cls-22 {
        fill: url(#linear-gradient-16);
      }

      .cls-23 {
        fill: url(#radial-gradient-2);
      }

      .cls-24 {
        fill: url(#radial-gradient-3);
      }

      .cls-25 {
        fill: #ffdeeb;
      }

      .cls-26 {
        fill: #fc428f;
      }

      .cls-27 {
        fill: url(#radial-gradient-4);
      }

      .cls-28 {
        fill: #d1d1d1;
      }

      .cls-29 {
        fill: #e9dff0;
      }

      .cls-30 {
        fill: #d3bfe3;
      }

      .cls-31 {
        fill: url(#linear-gradient-18);
      }

      .cls-32 {
        fill: url(#linear-gradient-19);
      }

      .cls-33 {
        fill: url(#linear-gradient-20);
      }
    </style>
    <linearGradient id="linear-gradient" x1="0.297" y1="0.269" x2="0.869" y2="0.921" gradientUnits="objectBoundingBox">
      <stop offset="0" stop-color="#fff"/>
      <stop offset="0.391" stop-color="#f5f5f5"/>
      <stop offset="1" stop-color="#dcdcdc"/>
    </linearGradient>
    <linearGradient id="linear-gradient-2" x1="0.08" y1="0.208" x2="0.825" y2="0.726" gradientUnits="objectBoundingBox">
      <stop offset="0" stop-color="#596a87"/>
      <stop offset="0.391" stop-color="#4f6283"/>
      <stop offset="1" stop-color="#36507a"/>
    </linearGradient>
    <linearGradient id="linear-gradient-3" x1="0.141" y1="0.239" x2="0.863" y2="0.764" xlink:href="#linear-gradient-2"/>
    <linearGradient id="linear-gradient-4" x1="0.627" y1="0.274" x2="0.35" y2="0.766" gradientUnits="objectBoundingBox">
      <stop offset="0" stop-color="#fff"/>
      <stop offset="0.262" stop-color="#f5f6f9"/>
      <stop offset="0.711" stop-color="#d9dde9"/>
      <stop offset="1" stop-color="#c4cadc"/>
    </linearGradient>
    <linearGradient id="linear-gradient-5" x1="0" y1="0.5" x2="1" y2="0.5" xlink:href="#linear-gradient-2"/>
    <linearGradient id="linear-gradient-6" x1="0.774" y1="0.895" x2="-0.018" y2="0.198" gradientUnits="objectBoundingBox">
      <stop offset="0" stop-color="#fff" stop-opacity="0.2"/>
      <stop offset="0.539" stop-color="#f5f9ff" stop-opacity="0.094"/>
      <stop offset="1" stop-color="#e8f1ff" stop-opacity="0"/>
    </linearGradient>
    <linearGradient id="linear-gradient-7" x1="0.533" y1="0.309" x2="0.463" y2="0.718" gradientUnits="objectBoundingBox">
      <stop offset="0" stop-color="#fff"/>
      <stop offset="0.28" stop-color="#f5f8fd"/>
      <stop offset="0.761" stop-color="#d9e5f6"/>
      <stop offset="1" stop-color="#c9daf2"/>
    </linearGradient>
    <linearGradient id="linear-gradient-8" x1="0.373" y1="0.145" x2="0.747" y2="0.997" gradientUnits="objectBoundingBox">
      <stop offset="0" stop-color="#ff3690"/>
      <stop offset="0.174" stop-color="#f83386"/>
      <stop offset="0.472" stop-color="#e72c6a"/>
      <stop offset="0.857" stop-color="#cb203d"/>
      <stop offset="1" stop-color="#bf1b2b"/>
    </linearGradient>
    <linearGradient id="linear-gradient-9" x1="0.412" y1="0.003" x2="0.658" y2="1.398" gradientUnits="objectBoundingBox">
      <stop offset="0" stop-color="#d0f04f"/>
      <stop offset="1" stop-color="#3ca845"/>
    </linearGradient>
    <linearGradient id="linear-gradient-10" x1="0.051" y1="0.075" x2="0.983" y2="0.908" xlink:href="#linear-gradient-7"/>
    <linearGradient id="linear-gradient-11" y1="0.5" x2="1" y2="0.5" gradientUnits="objectBoundingBox">
      <stop offset="0" stop-color="#4d63d5"/>
      <stop offset="1" stop-color="#5825c7"/>
    </linearGradient>
    <linearGradient id="linear-gradient-12" x1="0" y1="0.5" x2="1" y2="0.5" xlink:href="#linear-gradient-7"/>
    <linearGradient id="linear-gradient-15" x1="-0.594" y1="-0.467" x2="2.092" y2="1.907" xlink:href="#linear-gradient-4"/>
    <radialGradient id="radial-gradient" cx="517.296" cy="243.092" r="34.378" gradientTransform="translate(2.218 2.07) scale(0.933 0.933)" gradientUnits="userSpaceOnUse">
      <stop offset="0" stop-color="#f0f6ff"/>
      <stop offset="1" stop-color="#e8f1ff"/>
    </radialGradient>
    <linearGradient id="linear-gradient-16" x1="0" y1="0.5" x2="1" y2="0.5" xlink:href="#linear-gradient-8"/>
    <radialGradient id="radial-gradient-2" cx="643.092" cy="303.406" r="1.836" gradientTransform="translate(-1.331 -2.135) scale(1.604 1.604)" xlink:href="#radial-gradient"/>
    <radialGradient id="radial-gradient-3" cx="517.296" cy="329.386" r="34.378" xlink:href="#radial-gradient"/>
    <radialGradient id="radial-gradient-4" cx="643.092" cy="389.7" r="1.836" gradientTransform="translate(-1.331 -2.136) scale(1.604 1.604)" xlink:href="#radial-gradient"/>
    <linearGradient id="linear-gradient-18" x1="-0.594" y1="-0.467" x2="2.092" y2="1.908" xlink:href="#linear-gradient-2"/>
    <linearGradient id="linear-gradient-19" x1="0.722" y1="0.356" x2="-0.02" y2="0.838" gradientUnits="objectBoundingBox">
      <stop offset="0" stop-color="#c0fc58"/>
      <stop offset="1" stop-color="#43ba45"/>
    </linearGradient>
    <linearGradient id="linear-gradient-20" x1="42.283" y1="35.985" x2="41.535" y2="37.007" gradientUnits="objectBoundingBox">
      <stop offset="0" stop-color="#ffea00"/>
      <stop offset="1" stop-color="#ffae00"/>
    </linearGradient>
    <clipPath id="clip-img_resume_website">
      <rect width="276" height="236"/>
    </clipPath>
  </defs>
  <g id="img_resume_website" class="cls-1">
    <g id="img_resume_website-2" data-name="img_resume_website" transform="translate(-16.556 -86.112)">
      <path id="Path_498" data-name="Path 498" class="cls-2" d="M336.992,410.433,235.5,351.836a5.233,5.233,0,0,0-4.753,0l-59.2,35.4c-1.307.759-1.307,1.992.016,2.757l101.494,58.6a5.242,5.242,0,0,0,4.754-.005l59.2-35.4C338.315,412.422,338.308,411.193,336.992,410.433Z" transform="translate(-86.428 -149.134)"/>
      <g id="Group_234" data-name="Group 234" transform="translate(84.132 106.905)">
        <path id="Path_499" data-name="Path 499" class="cls-3" d="M337,426.494l-59.2,35.4a5.247,5.247,0,0,1-4.754,0L171.551,403.3a1.686,1.686,0,0,1-1-1.388c0,.913,0,.829-.006,1.741a1.684,1.684,0,0,0,.993,1.389l101.494,58.6a5.247,5.247,0,0,0,4.755,0l59.2-34.4a1.663,1.663,0,0,0,.975-1.364q.005-1.37.008-2.739A1.665,1.665,0,0,1,337,426.494Z" transform="translate(-170.549 -286.436)"/>
        <path id="Path_500" data-name="Path 500" class="cls-4" d="M336.992,367.706,235.5,309.109a5.231,5.231,0,0,0-4.753-.005l-59.2,35.4c-1.307.76-1.307,1.994.016,2.757l101.494,58.6a5.246,5.246,0,0,0,4.754,0l59.2-35.4C338.315,369.695,338.308,368.466,336.992,367.706Z" transform="translate(-170.561 -230.396)"/>
        <g id="Group_233" data-name="Group 233" transform="translate(23.171)">
          <path id="Path_501" data-name="Path 501" class="cls-5" d="M261.651,323.524,228.5,342.79,328.8,400.7l33.153-19.268Z" transform="translate(-228.497 -239.392)"/>
          <path id="Path_502" data-name="Path 502" class="cls-6" d="M258.74,432.548l34.293,19.8,19.735-11.468-34.294-19.8Z" transform="translate(-246.647 -297.939)"/>
          <path id="Path_503" data-name="Path 503" class="cls-7" d="M441.652,172.027l-101.494-58.6c-1.322-.763-2.552-.075-2.753,1.535l-9.167,72.891a4.648,4.648,0,0,0,2.02,4.3l101.494,58.6c1.317.76,2.547.064,2.749-1.547l9.166-72.891A4.631,4.631,0,0,0,441.652,172.027Z" transform="translate(-288.339 -113.117)"/>
          <path id="Path_504" data-name="Path 504" class="cls-8" d="M345.021,123.081l-8.709,69.252,100.307,57.912,8.708-69.252Z" transform="translate(-293.201 -119.097)"/>
          <path id="Path_505" data-name="Path 505" class="cls-9" d="M345.021,123.081l-8.709,69.252L353.57,202.3l51.077-44.792Z" transform="translate(-293.201 -119.097)"/>
        </g>
      </g>
      <g id="Group_235" data-name="Group 235" transform="translate(239.373 108.723)">
        <path id="Path_506" data-name="Path 506" class="cls-10" d="M589.439,134.466,560.8,117.93c-1.066-.616-1.937-.119-1.941,1.106l-.068,23.937a4.246,4.246,0,0,0,1.928,3.333l28.64,16.535c1.066.616,1.931.122,1.936-1.1l.067-23.937A4.238,4.238,0,0,0,589.439,134.466Z" transform="translate(-558.789 -117.665)"/>
        <path id="Path_507" data-name="Path 507" class="cls-11" d="M576.368,169.607a3.692,3.692,0,0,0-1.123-1.068,1.553,1.553,0,0,0-1.13-.232l-15.161,3.755,0,1.284a4.25,4.25,0,0,0,1.928,3.333l28.64,16.535c1.066.616,1.932.122,1.936-1.1l0-1.285Z" transform="translate(-558.886 -148.039)"/>
        <path id="Path_508" data-name="Path 508" class="cls-12" d="M589.374,134.464l-.441-.255-13.912,3.443-13.846-19.47-.441-.255c-1.066-.615-1.936-.119-1.94,1.107l0,1.285,15.089,21.212a3.716,3.716,0,0,0,1.13,1.072,1.533,1.533,0,0,0,1.123.23l15.163-3.749,0-1.285A4.243,4.243,0,0,0,589.374,134.464Z" transform="translate(-558.789 -117.664)"/>
      </g>
      <g id="Group_238" data-name="Group 238" transform="translate(74.135 105.007)">
        <path id="Path_509" data-name="Path 509" class="cls-13" d="M209.656,144.394l-61.865-35.718c-1.235-.714-2.238-.134-2.243,1.286v49.5a4.911,4.911,0,0,0,2.228,3.868l61.865,35.718c1.235.713,2.24.142,2.244-1.286v-49.5A4.924,4.924,0,0,0,209.656,144.394Z" transform="translate(-145.547 -108.37)"/>
        <g id="Group_236" data-name="Group 236" transform="translate(5.275 19.747)">
          <path id="Path_510" data-name="Path 510" class="cls-14" d="M181.668,173.769l-7.542,10.515c-.073.11-.2.136-.438.041a.99.99,0,0,1-.322-.322l-11.439-17.621c-1.985,1.771-3.176,4.749-3.188,8.731-.026,9.485,6.643,21.044,14.9,25.812s14.973.938,15-8.548C188.658,186.238,185.87,179.239,181.668,173.769Z" transform="translate(-158.739 -162.933)"/>
          <path id="Path_511" data-name="Path 511" class="cls-15" d="M186.144,165.924a27.008,27.008,0,0,0-7.059-6.12c-4.429-2.557-8.416-2.637-11.164-.7L178.9,176.023Z" transform="translate(-164.249 -157.756)"/>
        </g>
        <g id="Group_237" data-name="Group 237" transform="translate(39.925 49.247)">
          <path id="Path_512" data-name="Path 512" class="cls-16" d="M245.424,243.448l22.184,12.809.005-2.1L245.429,241.35Z" transform="translate(-245.412 -237.424)"/>
          <path id="Path_513" data-name="Path 513" class="cls-16" d="M245.395,253.276l12.688,7.324.006-2.092L245.4,251.183Z" transform="translate(-245.395 -243.325)"/>
          <path id="Path_514" data-name="Path 514" class="cls-16" d="M245.457,231.532l-.006,2.1,22.184,12.807.005-2.1Z" transform="translate(-245.429 -231.532)"/>
        </g>
        <path id="Path_515" data-name="Path 515" class="cls-17" d="M294.16,203.756l1.007-.574c.2-.112.2-.483,0-.828a1.028,1.028,0,0,0-.365-.385.368.368,0,0,0-.365-.037l-1,.57-.992-1.72a1.048,1.048,0,0,0-.365-.385.366.366,0,0,0-.365-.035c-.194.121-.194.492,0,.826l.993,1.731-1,.569c-.195.112-.2.483,0,.828a1.047,1.047,0,0,0,.365.385.367.367,0,0,0,.365.035l1-.569.992,1.719a1.068,1.068,0,0,0,.365.386.364.364,0,0,0,.365.035c.194-.12.2-.491,0-.828Z" transform="translate(-233.177 -163.558)"/>
      </g>
      <g id="Group_245" data-name="Group 245" transform="translate(209.519 146.5)">
        <path id="Path_516" data-name="Path 516" class="cls-18" d="M548.236,248.164l-61.865-35.718c-1.236-.714-2.238-.133-2.242,1.286V234.15a4.913,4.913,0,0,0,2.229,3.868l61.865,35.718c1.236.713,2.239.142,2.244-1.286V252.031A4.924,4.924,0,0,0,548.236,248.164Z" transform="translate(-484.127 -212.141)"/>
        <g id="Group_243" data-name="Group 243" transform="translate(6.371 11.558)">
          <g id="Group_241" data-name="Group 241">
            <path id="Path_517" data-name="Path 517" class="cls-19" d="M507.179,242.075c-3.93-2.3-7.12-.609-7.12,3.778a14.092,14.092,0,0,0,2.2,7.035v.01a14.8,14.8,0,0,0,4.915,5.073c1.906,1.116,3.64,1.292,4.915.673,1.362-.647,2.2-2.191,2.2-4.454C514.3,249.8,511.109,244.376,507.179,242.075Z" transform="translate(-500.059 -241.047)"/>
            <g id="Group_240" data-name="Group 240" transform="translate(2.205 4.659)">
              <g id="Group_239" data-name="Group 239">
                <path id="Path_518" data-name="Path 518" class="cls-20" d="M514.283,258.369c1.323.775,2.386.2,2.386-1.265a5.241,5.241,0,0,0-2.386-4.063c-1.313-.769-2.387-.2-2.387,1.267A5.256,5.256,0,0,0,514.283,258.369Z" transform="translate(-509.368 -252.699)"/>
                <path id="Path_519" data-name="Path 519" class="cls-20" d="M510.488,267.066c-2.266-1.328-4.192-.844-4.915.984v.01a14.8,14.8,0,0,0,4.915,5.073c1.906,1.116,3.64,1.292,4.915.673A11.747,11.747,0,0,0,510.488,267.066Z" transform="translate(-505.573 -260.869)"/>
              </g>
            </g>
          </g>
          <g id="Group_242" data-name="Group 242" transform="translate(18.856 10.146)">
            <path id="Path_520" data-name="Path 520" d="M547.6,268.962v-2.541l.321.188.729,1.713c.169.4.3.741.408,1.064h.007c-.027-.355-.034-.668-.034-1.064v-1.063l.277.162v2.541l-.3-.174-.723-1.713c-.158-.375-.31-.755-.425-1.1l-.01,0c.017.33.024.64.024,1.062v1.086Z" transform="translate(-547.449 -266.421)"/>
            <path id="Path_521" data-name="Path 521" d="M553.848,273.971l-.024-.244-.01-.006c-.091.09-.267.115-.5-.021a1.011,1.011,0,0,1-.5-.817c0-.441.351-.477.982-.1v-.038a.776.776,0,0,0-.8-.753l-.067-.258a.905.905,0,0,1,.537.152,1.22,1.22,0,0,1,.621,1.11v.683a3.179,3.179,0,0,0,.027.453Zm-.044-.957c-.324-.2-.692-.349-.692.006a.566.566,0,0,0,.28.481c.213.125.348.053.4-.074a.3.3,0,0,0,.017-.1Z" transform="translate(-550.577 -269.605)"/>
            <path id="Path_522" data-name="Path 522" d="M557.187,274.316c0-.188,0-.345-.014-.5l.26.152.013.3.01.006c.092-.12.243-.193.513-.035a1.082,1.082,0,0,1,.462.637l.007,0a.314.314,0,0,1,.182-.131.461.461,0,0,1,.361.083,1.239,1.239,0,0,1,.537,1.106v1.075l-.29-.17v-1.033a.836.836,0,0,0-.355-.77.22.22,0,0,0-.351.1.475.475,0,0,0-.024.152v1.127l-.29-.17v-1.093a.793.793,0,0,0-.341-.7.23.23,0,0,0-.368.116.391.391,0,0,0-.024.148v1.1l-.29-.17v-1.332Z" transform="translate(-553.192 -270.858)"/>
            <path id="Path_523" data-name="Path 523" d="M564.239,279.367a1.125,1.125,0,0,0,.56.962,1.1,1.1,0,0,0,.453.171l.051.267a1.332,1.332,0,0,1-.543-.205,1.63,1.63,0,0,1-.8-1.391c0-.551.29-.814.766-.536a1.48,1.48,0,0,1,.675,1.255,1.289,1.289,0,0,1-.01.149Zm.871.272a.9.9,0,0,0-.412-.78c-.3-.176-.432.056-.455.272Z" transform="translate(-557.262 -273.684)"/>
            <path id="Path_524" data-name="Path 524" d="M571.573,283.605c0,.675-.419.724-.813.493a1.68,1.68,0,0,1-.783-1.4c0-.611.358-.76.81-.495A1.669,1.669,0,0,1,571.573,283.605Zm-1.3-.74a1.2,1.2,0,0,0,.5.992c.284.166.5-.007.5-.418a1.189,1.189,0,0,0-.49-.988C570.429,282.245,570.277,282.519,570.277,282.865Z" transform="translate(-560.876 -275.819)"/>
            <path id="Path_525" data-name="Path 525" d="M574.64,285.11v-1.573l-.23-.134v-.253l.23.134V283.2c0-.257.051-.46.189-.526a.436.436,0,0,1,.4.063,1.245,1.245,0,0,1,.253.2l-.041.233a.786.786,0,0,0-.189-.152c-.253-.148-.317.063-.317.342v.1l.395.231v.252l-.395-.231v1.573Z" transform="translate(-563.537 -276.158)"/>
            <path id="Path_526" data-name="Path 526" d="M580.151,289.522a1.077,1.077,0,0,1-.469-.169,1.674,1.674,0,0,1-.813-1.408c0-.562.344-.768.877-.455a1.8,1.8,0,0,1,.411.335l-.068.217a1.282,1.282,0,0,0-.344-.288c-.375-.22-.577-.029-.577.352a1.209,1.209,0,0,0,.567,1.014.809.809,0,0,0,.364.123Z" transform="translate(-566.213 -278.978)"/>
            <path id="Path_527" data-name="Path 527" d="M584.2,291c0,.675-.418.724-.813.493a1.681,1.681,0,0,1-.782-1.4c0-.611.357-.759.809-.495A1.671,1.671,0,0,1,584.2,291Zm-1.3-.74a1.2,1.2,0,0,0,.5.992c.284.166.5-.008.5-.418a1.191,1.191,0,0,0-.49-.988C583.055,289.638,582.9,289.911,582.9,290.258Z" transform="translate(-568.454 -280.255)"/>
            <path id="Path_528" data-name="Path 528" d="M587.513,292.074c0-.188,0-.345-.014-.5l.263.154.017.311.007,0c.081-.126.271-.185.541-.027a1.266,1.266,0,0,1,.577,1.115v1.09l-.3-.174v-1.052a.836.836,0,0,0-.378-.761c-.2-.114-.348-.049-.4.106a.415.415,0,0,0-.02.143v1.1l-.3-.174v-1.331Z" transform="translate(-571.392 -281.515)"/>
            <path id="Path_529" data-name="Path 529" d="M592.265,293.406v.525l.425.249v.253l-.425-.249v.984a.5.5,0,0,0,.223.485.77.77,0,0,0,.172.078l.013.257a.793.793,0,0,1-.264-.109.846.846,0,0,1-.32-.327,1.073,1.073,0,0,1-.115-.542v-1l-.253-.148v-.252l.253.148v-.437Z" transform="translate(-573.926 -282.567)"/>
            <path id="Path_530" data-name="Path 530" d="M595.693,298.474l-.024-.244-.01-.006c-.091.09-.267.116-.5-.021a1.01,1.01,0,0,1-.5-.816c0-.441.351-.477.982-.1v-.038a.776.776,0,0,0-.8-.753l-.068-.258a.907.907,0,0,1,.537.152,1.221,1.221,0,0,1,.621,1.11v.683a3.243,3.243,0,0,0,.027.453Zm-.044-.957c-.324-.2-.691-.349-.691.006a.565.565,0,0,0,.28.481c.212.125.347.053.395-.074a.288.288,0,0,0,.017-.1Z" transform="translate(-575.69 -284.311)"/>
            <path id="Path_531" data-name="Path 531" d="M600.04,301.168a1.084,1.084,0,0,1-.47-.17,1.675,1.675,0,0,1-.813-1.408c0-.562.344-.768.877-.455a1.788,1.788,0,0,1,.412.335l-.068.217a1.276,1.276,0,0,0-.344-.288c-.375-.22-.577-.029-.577.352a1.208,1.208,0,0,0,.567,1.014.81.81,0,0,0,.364.123Z" transform="translate(-578.148 -285.967)"/>
            <path id="Path_532" data-name="Path 532" d="M603.025,299.706v.525l.425.249v.253l-.425-.249v.984a.5.5,0,0,0,.223.485.753.753,0,0,0,.172.078l.013.257a.791.791,0,0,1-.263-.109.85.85,0,0,1-.32-.327,1.074,1.074,0,0,1-.115-.542v-1l-.253-.148v-.252l.253.148v-.437Z" transform="translate(-580.384 -286.348)"/>
            <path id="Path_533" data-name="Path 533" class="cls-21" d="M547.412,280.456c0-.142,0-.258-.01-.376l.2.116.012.234.005,0c.061-.094.2-.138.405-.02a.948.948,0,0,1,.433.835v.816l-.223-.13v-.788a.627.627,0,0,0-.284-.57c-.147-.086-.261-.037-.3.079a.313.313,0,0,0-.015.107v.823l-.223-.13Z" transform="translate(-547.328 -274.618)"/>
            <path id="Path_534" data-name="Path 534" class="cls-21" d="M551.475,284.042l-.018-.183-.008,0c-.068.067-.2.086-.375-.016a.758.758,0,0,1-.375-.612c0-.331.263-.357.737-.077v-.028a.531.531,0,0,0-.278-.48.541.541,0,0,0-.32-.085l-.05-.193a.682.682,0,0,1,.4.114.915.915,0,0,1,.466.832v.511a2.46,2.46,0,0,0,.02.34Zm-.033-.717c-.243-.148-.519-.262-.519,0a.424.424,0,0,0,.21.36c.16.094.261.04.3-.055a.216.216,0,0,0,.012-.072v-.237Z" transform="translate(-549.307 -275.987)"/>
            <path id="Path_535" data-name="Path 535" class="cls-21" d="M553.979,284.3c0-.141,0-.258-.01-.375l.195.114.01.226.008,0c.068-.09.182-.144.385-.026a.814.814,0,0,1,.347.477l.005,0a.238.238,0,0,1,.137-.1.348.348,0,0,1,.271.062.929.929,0,0,1,.4.829v.805l-.218-.127v-.775a.626.626,0,0,0-.266-.577.165.165,0,0,0-.263.072.353.353,0,0,0-.018.114v.844l-.218-.127v-.819a.6.6,0,0,0-.256-.525.172.172,0,0,0-.276.087.3.3,0,0,0-.018.111v.825l-.218-.128v-1Z" transform="translate(-551.269 -276.927)"/>
            <path id="Path_536" data-name="Path 536" class="cls-21" d="M559.268,288.089a.843.843,0,0,0,.42.721.817.817,0,0,0,.34.128l.038.2a1.007,1.007,0,0,1-.408-.154,1.222,1.222,0,0,1-.6-1.042c0-.412.218-.61.575-.4a1.109,1.109,0,0,1,.507.941.94.94,0,0,1-.008.111Zm.653.2a.673.673,0,0,0-.309-.585c-.225-.132-.325.042-.342.2Z" transform="translate(-554.321 -279.046)"/>
            <path id="Path_537" data-name="Path 537" class="cls-21" d="M563.478,291.189a.894.894,0,0,1-.451-.151,1.639,1.639,0,0,1-.767-1.331c0-.582.362-.873.924-.543a1.525,1.525,0,0,1,.737,1.248c0,.424-.212.548-.45.408a.4.4,0,0,1-.188-.358l-.01-.006c-.089.115-.205.128-.357.04a.622.622,0,0,1-.274-.516c0-.35.248-.524.6-.318a1.19,1.19,0,0,1,.271.218l-.086.461c-.038.192-.008.309.076.361.13.078.274-.029.274-.357a1.247,1.247,0,0,0-.613-1.062c-.413-.241-.759-.08-.759.493a1.364,1.364,0,0,0,.651,1.144.756.756,0,0,0,.382.125Zm-.14-1.3a.738.738,0,0,0-.126-.094c-.223-.13-.4,0-.4.273a.356.356,0,0,0,.167.313c.147.086.281-.044.309-.2Z" transform="translate(-556.245 -279.987)"/>
            <path id="Path_538" data-name="Path 538" class="cls-21" d="M567.109,292.681a.843.843,0,0,0,.421.721.821.821,0,0,0,.339.128l.038.2a1.011,1.011,0,0,1-.408-.154,1.222,1.222,0,0,1-.6-1.042c0-.412.218-.609.575-.4a1.11,1.11,0,0,1,.507.941.854.854,0,0,1-.008.111Zm.654.2a.673.673,0,0,0-.309-.585c-.225-.132-.324.042-.342.2Z" transform="translate(-559.028 -281.801)"/>
            <path id="Path_539" data-name="Path 539" class="cls-21" d="M570.276,293.844c0-.142,0-.258-.01-.376l.195.114.01.226.008,0c.069-.09.182-.144.385-.026a.816.816,0,0,1,.347.477l.005,0a.235.235,0,0,1,.137-.1.345.345,0,0,1,.271.062.928.928,0,0,1,.4.829v.805l-.218-.128v-.774a.625.625,0,0,0-.266-.577.165.165,0,0,0-.263.072.352.352,0,0,0-.018.114v.844l-.218-.128v-.819a.6.6,0,0,0-.256-.525.172.172,0,0,0-.276.087.287.287,0,0,0-.018.111v.825l-.218-.127v-1Z" transform="translate(-561.05 -282.653)"/>
            <path id="Path_540" data-name="Path 540" class="cls-21" d="M576.107,298.466l-.018-.183-.008,0c-.068.067-.2.086-.375-.016a.758.758,0,0,1-.375-.612c0-.331.263-.357.737-.077v-.028a.532.532,0,0,0-.279-.48.539.539,0,0,0-.319-.085l-.05-.193a.682.682,0,0,1,.4.114.915.915,0,0,1,.466.832v.511a2.392,2.392,0,0,0,.02.34Zm-.033-.717c-.243-.148-.519-.262-.519,0a.424.424,0,0,0,.21.36c.159.094.261.04.3-.055a.215.215,0,0,0,.012-.072v-.237Z" transform="translate(-564.09 -284.644)"/>
            <path id="Path_541" data-name="Path 541" class="cls-21" d="M578.832,297.38c0,.086-.053.122-.142.07a.289.289,0,0,1-.134-.231c0-.088.058-.121.139-.074A.287.287,0,0,1,578.832,297.38Zm-.248,1.606v-1.368l.223.13v1.368Z" transform="translate(-566.025 -284.847)"/>
            <path id="Path_542" data-name="Path 542" class="cls-21" d="M580.108,297.635l.223.13v2.006l-.223-.13Z" transform="translate(-566.956 -285.154)"/>
            <path id="Path_543" data-name="Path 543" class="cls-21" d="M581.407,302.875c0-.1.063-.141.152-.089a.319.319,0,0,1,.149.265c0,.1-.058.144-.152.09A.324.324,0,0,1,581.407,302.875Z" transform="translate(-567.736 -288.231)"/>
            <path id="Path_544" data-name="Path 544" class="cls-21" d="M583.591,302.958a.813.813,0,0,1-.352-.127,1.255,1.255,0,0,1-.61-1.055c0-.421.258-.575.658-.341a1.345,1.345,0,0,1,.309.252l-.051.162a.954.954,0,0,0-.258-.216c-.281-.165-.433-.022-.433.263a.907.907,0,0,0,.425.76.6.6,0,0,0,.273.092Z" transform="translate(-568.469 -287.369)"/>
            <path id="Path_545" data-name="Path 545" class="cls-21" d="M586.627,304.066c0,.506-.314.542-.61.369a1.261,1.261,0,0,1-.587-1.048c0-.458.268-.569.608-.37A1.252,1.252,0,0,1,586.627,304.066Zm-.973-.555a.9.9,0,0,0,.373.743c.213.125.372-.005.372-.313a.892.892,0,0,0-.367-.741C585.768,303.046,585.654,303.251,585.654,303.511Z" transform="translate(-570.15 -288.327)"/>
            <path id="Path_546" data-name="Path 546" class="cls-21" d="M589.113,304.874c0-.142,0-.258-.01-.376l.195.114.01.226.008,0c.068-.09.182-.144.385-.026a.814.814,0,0,1,.347.477l.005,0a.236.236,0,0,1,.137-.1.344.344,0,0,1,.271.062.928.928,0,0,1,.4.829v.805l-.218-.128v-.774a.625.625,0,0,0-.266-.577.165.165,0,0,0-.263.072.353.353,0,0,0-.018.114v.844l-.218-.128V305.5a.6.6,0,0,0-.256-.525.172.172,0,0,0-.276.087.3.3,0,0,0-.018.111V306l-.218-.127v-1Z" transform="translate(-572.355 -289.273)"/>
            <path id="Path_547" data-name="Path 547" class="cls-21" d="M547.952,291.408v.664l.573.335v.17l-.573-.335v.67l-.162-.095v-.67l-.573-.335v-.17l.573.335v-.664Z" transform="translate(-547.217 -281.36)"/>
            <path id="Path_548" data-name="Path 548" class="cls-21" d="M551.731,292.832l-.005,0-.287,0-.042-.214.359,0,.19.111v1.836l-.215-.126Z" transform="translate(-549.726 -282.141)"/>
            <path id="Path_549" data-name="Path 549" class="cls-21" d="M554.272,295.846v-.153l.175-.087c.42-.2.61-.326.613-.6a.625.625,0,0,0-.327-.55.413.413,0,0,0-.35-.049l-.071-.217a.564.564,0,0,1,.466.086,1,1,0,0,1,.5.829c0,.339-.22.484-.567.653l-.132.059v.006l.74.433v.206Z" transform="translate(-551.451 -283.073)"/>
            <path id="Path_550" data-name="Path 550" class="cls-21" d="M558.42,296.94a1.038,1.038,0,0,0-.168-.087c-.349-.14-.534.038-.572.318l.008,0c.078-.07.216-.086.4.021a1.054,1.054,0,0,1,.5.884c0,.336-.2.527-.547.327a1.3,1.3,0,0,1-.582-1.124c0-.361.116-.579.278-.665a.609.609,0,0,1,.526.038,1.34,1.34,0,0,1,.162.081v.2Zm-.063,1.022a.716.716,0,0,0-.339-.62c-.134-.079-.258-.058-.319.039a.149.149,0,0,0-.026.1.859.859,0,0,0,.362.738C558.228,298.327,558.357,298.225,558.357,297.962Z" transform="translate(-553.36 -284.517)"/>
            <path id="Path_551" data-name="Path 551" class="cls-21" d="M561.743,298.533l-.628-.368-.063.435a1.076,1.076,0,0,1,.134.068,1.3,1.3,0,0,1,.355.307,1,1,0,0,1,.235.609c0,.358-.256.477-.613.268a1.523,1.523,0,0,1-.41-.353l.056-.157a1.416,1.416,0,0,0,.352.308c.21.123.39.075.39-.17a.826.826,0,0,0-.474-.684,2.109,2.109,0,0,0-.228-.114l.107-.819.787.461v.21Z" transform="translate(-555.341 -285.29)"/>
            <path id="Path_552" data-name="Path 552" class="cls-21" d="M563.97,301.141c0-.232.124-.323.327-.3l0-.01a.89.89,0,0,1-.261-.565c0-.291.22-.359.509-.191a.923.923,0,0,1,.478.732c0,.156-.068.282-.271.271v.008a1.009,1.009,0,0,1,.331.669c0,.319-.245.391-.56.207A1.06,1.06,0,0,1,563.97,301.141Zm.886.508a.864.864,0,0,0-.362-.613c-.192-.051-.3.03-.3.205a.659.659,0,0,0,.33.543C564.727,301.9,564.856,301.838,564.856,301.648Zm-.613-1.277a.751.751,0,0,0,.314.523c.142.029.251-.02.251-.187a.55.55,0,0,0-.279-.463C564.344,300.137,564.243,300.214,564.243,300.372Z" transform="translate(-557.271 -286.564)"/>
            <path id="Path_553" data-name="Path 553" class="cls-21" d="M567.977,302.345l0,0-.287,0-.043-.214.359,0,.19.111v1.836l-.216-.126Z" transform="translate(-559.476 -287.85)"/>
            <path id="Path_554" data-name="Path 554" class="cls-21" d="M570.519,305.359v-.153l.175-.087c.42-.2.61-.326.613-.6a.625.625,0,0,0-.327-.551.414.414,0,0,0-.349-.049l-.071-.217a.565.565,0,0,1,.466.087,1,1,0,0,1,.5.829c0,.339-.221.484-.567.654l-.132.058v.006l.739.433v.206Z" transform="translate(-561.201 -288.783)"/>
            <path id="Path_555" data-name="Path 555" class="cls-21" d="M573.809,306.974a1.443,1.443,0,0,0,.365.329c.286.168.375.016.372-.138a.794.794,0,0,0-.425-.617l-.124-.073v-.187l.124.073c.162.095.367.122.367-.1a.532.532,0,0,0-.289-.446.5.5,0,0,0-.329-.072l-.058-.215a.671.671,0,0,1,.43.111.885.885,0,0,1,.471.714.229.229,0,0,1-.3.254v.006a.951.951,0,0,1,.367.687c0,.293-.205.43-.6.2a1.606,1.606,0,0,1-.428-.375Z" transform="translate(-563.139 -289.891)"/>
            <path id="Path_556" data-name="Path 556" class="cls-21" d="M579.067,308.839l-.005,0-.287,0-.042-.214.359,0,.19.111v1.837l-.215-.126Z" transform="translate(-566.131 -291.748)"/>
            <path id="Path_557" data-name="Path 557" class="cls-21" d="M581.608,311.853V311.7l.175-.087c.42-.2.61-.326.613-.6a.625.625,0,0,0-.327-.55.413.413,0,0,0-.35-.049l-.071-.217a.564.564,0,0,1,.466.086,1,1,0,0,1,.5.829c0,.339-.22.484-.567.653l-.132.059v.006l.74.433v.206Z" transform="translate(-567.857 -292.68)"/>
            <path id="Path_558" data-name="Path 558" class="cls-21" d="M584.808,313.342c0-.232.124-.323.327-.3l0-.01a.89.89,0,0,1-.261-.565c0-.291.22-.359.509-.191a.922.922,0,0,1,.478.732c0,.156-.068.282-.271.271v.008a1.009,1.009,0,0,1,.331.669c0,.319-.245.39-.56.206A1.059,1.059,0,0,1,584.808,313.342Zm.886.508a.865.865,0,0,0-.362-.613c-.192-.05-.3.03-.3.205a.658.658,0,0,0,.329.543C585.565,314.1,585.694,314.04,585.694,313.851Zm-.613-1.278a.749.749,0,0,0,.314.523c.142.03.251-.02.251-.186a.55.55,0,0,0-.279-.463C585.182,312.338,585.081,312.415,585.081,312.573Z" transform="translate(-569.777 -293.887)"/>
            <path id="Path_559" data-name="Path 559" class="cls-21" d="M589.562,316.421a1.237,1.237,0,0,0,.18.1.369.369,0,0,0,.563-.337l-.008,0c-.092.071-.223.067-.388-.029a1.035,1.035,0,0,1-.486-.847c0-.347.225-.521.562-.323a1.252,1.252,0,0,1,.544,1.093c0,.4-.122.615-.284.7a.566.566,0,0,1-.479-.034,1.389,1.389,0,0,1-.205-.106v-.2Zm.082-1.009a.682.682,0,0,0,.317.575c.149.088.266.074.324,0a.117.117,0,0,0,.021-.078.844.844,0,0,0-.337-.751C589.778,315.044,589.643,315.152,589.643,315.412Z" transform="translate(-572.546 -295.512)"/>
            <path id="Path_560" data-name="Path 560" class="cls-21" d="M593.759,318.139c0,.625-.208.848-.573.634a1.436,1.436,0,0,1-.544-1.262c0-.616.238-.815.572-.62A1.387,1.387,0,0,1,593.759,318.139Zm-.894-.5a1.1,1.1,0,0,0,.334.944c.227.133.337-.1.337-.569,0-.452-.1-.809-.334-.944C593.007,316.962,592.865,317.145,592.865,317.644Z" transform="translate(-574.479 -296.667)"/>
          </g>
        </g>
        <g id="Group_244" data-name="Group 244" transform="translate(59.542 30.951)">
          <path id="Path_561" data-name="Path 561" class="cls-22" d="M638.4,290.28a11.731,11.731,0,0,1,5.326,9.226c-.009,3.394-2.407,4.761-5.361,3.055a11.729,11.729,0,0,1-5.326-9.225C633.044,289.941,635.442,288.574,638.4,290.28Z" transform="translate(-633.035 -289.545)"/>
        </g>
        <path id="Path_562" data-name="Path 562" class="cls-23" d="M643.939,303.9l1.184-.675c.229-.132.23-.567,0-.973a1.2,1.2,0,0,0-.428-.453.432.432,0,0,0-.43-.043l-1.175.669-1.166-2.022a1.232,1.232,0,0,0-.428-.451.43.43,0,0,0-.43-.041c-.228.141-.228.578,0,.972l1.167,2.034-1.175.668c-.229.132-.23.568,0,.973a1.229,1.229,0,0,0,.428.453.43.43,0,0,0,.429.041l1.175-.668,1.166,2.02a1.233,1.233,0,0,0,.428.453.427.427,0,0,0,.429.042c.229-.141.231-.576,0-.972Z" transform="translate(-578.207 -264.792)"/>
      </g>
      <g id="Group_252" data-name="Group 252" transform="translate(209.519 181.005)">
        <path id="Path_563" data-name="Path 563" class="cls-24" d="M548.236,334.458,486.371,298.74c-1.236-.713-2.238-.133-2.242,1.286v20.417a4.913,4.913,0,0,0,2.229,3.868l61.865,35.718c1.236.713,2.239.142,2.244-1.286V338.326A4.925,4.925,0,0,0,548.236,334.458Z" transform="translate(-484.127 -298.434)"/>
        <g id="Group_250" data-name="Group 250" transform="translate(6.371 11.558)">
          <g id="Group_248" data-name="Group 248">
            <path id="Path_564" data-name="Path 564" class="cls-25" d="M507.179,328.369c-3.93-2.3-7.12-.609-7.12,3.777a14.088,14.088,0,0,0,2.2,7.035v.01a14.8,14.8,0,0,0,4.915,5.073c1.906,1.116,3.64,1.293,4.915.673,1.362-.647,2.2-2.192,2.2-4.454C514.3,336.1,511.109,330.67,507.179,328.369Z" transform="translate(-500.059 -327.341)"/>
            <g id="Group_247" data-name="Group 247" transform="translate(2.205 4.659)">
              <g id="Group_246" data-name="Group 246">
                <path id="Path_565" data-name="Path 565" class="cls-26" d="M514.283,344.663c1.323.775,2.386.2,2.386-1.266a5.241,5.241,0,0,0-2.386-4.062c-1.313-.769-2.387-.2-2.387,1.267A5.256,5.256,0,0,0,514.283,344.663Z" transform="translate(-509.368 -338.993)"/>
                <path id="Path_566" data-name="Path 566" class="cls-26" d="M510.488,353.361c-2.266-1.327-4.192-.844-4.915.984v.01a14.8,14.8,0,0,0,4.915,5.073c1.906,1.116,3.64,1.293,4.915.673A11.748,11.748,0,0,0,510.488,353.361Z" transform="translate(-505.573 -347.163)"/>
              </g>
            </g>
          </g>
          <g id="Group_249" data-name="Group 249" transform="translate(18.856 10.146)">
            <path id="Path_567" data-name="Path 567" d="M547.6,355.256v-2.541l.321.188.729,1.713c.169.4.3.741.408,1.065h.007c-.027-.355-.034-.668-.034-1.064v-1.063l.277.162v2.541l-.3-.174-.723-1.713c-.158-.375-.31-.755-.425-1.1l-.01,0c.017.33.024.64.024,1.062v1.086Z" transform="translate(-547.449 -352.715)"/>
            <path id="Path_568" data-name="Path 568" d="M553.848,360.266l-.024-.244-.01-.006c-.091.09-.267.115-.5-.021a1.01,1.01,0,0,1-.5-.816c0-.441.351-.477.982-.1v-.038a.776.776,0,0,0-.8-.753l-.067-.258a.9.9,0,0,1,.537.152,1.221,1.221,0,0,1,.621,1.11v.683a3.168,3.168,0,0,0,.027.453Zm-.044-.958c-.324-.2-.692-.348-.692.006a.565.565,0,0,0,.28.48c.213.125.348.053.4-.074a.3.3,0,0,0,.017-.1Z" transform="translate(-550.577 -355.9)"/>
            <path id="Path_569" data-name="Path 569" d="M557.187,360.611c0-.189,0-.345-.014-.5l.26.152.013.3.01.006c.092-.12.243-.193.513-.035a1.083,1.083,0,0,1,.462.637l.007,0a.314.314,0,0,1,.182-.131.464.464,0,0,1,.361.083,1.239,1.239,0,0,1,.537,1.106v1.075l-.29-.17V362.1a.835.835,0,0,0-.355-.769.22.22,0,0,0-.351.1.472.472,0,0,0-.024.152v1.127l-.29-.17v-1.094a.793.793,0,0,0-.341-.7.23.23,0,0,0-.368.116.389.389,0,0,0-.024.148v1.1l-.29-.17v-1.331Z" transform="translate(-553.192 -357.152)"/>
            <path id="Path_570" data-name="Path 570" d="M564.239,365.662a1.124,1.124,0,0,0,.56.961,1.09,1.09,0,0,0,.453.171l.051.267a1.332,1.332,0,0,1-.543-.205,1.63,1.63,0,0,1-.8-1.391c0-.551.29-.814.766-.535a1.48,1.48,0,0,1,.675,1.255,1.288,1.288,0,0,1-.01.148Zm.871.272a.9.9,0,0,0-.412-.78c-.3-.176-.432.056-.455.272Z" transform="translate(-557.262 -359.978)"/>
            <path id="Path_571" data-name="Path 571" d="M571.573,369.9c0,.675-.419.725-.813.493a1.68,1.68,0,0,1-.783-1.4c0-.611.358-.759.81-.495A1.67,1.67,0,0,1,571.573,369.9Zm-1.3-.74a1.2,1.2,0,0,0,.5.992c.284.166.5-.008.5-.419a1.19,1.19,0,0,0-.49-.988C570.429,368.54,570.277,368.813,570.277,369.16Z" transform="translate(-560.876 -362.113)"/>
            <path id="Path_572" data-name="Path 572" d="M574.64,371.4v-1.573l-.23-.134v-.252l.23.134v-.087c0-.256.051-.46.189-.526a.436.436,0,0,1,.4.064,1.23,1.23,0,0,1,.253.2l-.041.233a.806.806,0,0,0-.189-.152c-.253-.148-.317.063-.317.342v.1l.395.231v.253l-.395-.231v1.573Z" transform="translate(-563.537 -362.452)"/>
            <path id="Path_573" data-name="Path 573" d="M580.151,375.816a1.085,1.085,0,0,1-.469-.17,1.673,1.673,0,0,1-.813-1.408c0-.562.344-.768.877-.455a1.8,1.8,0,0,1,.411.336l-.068.217a1.283,1.283,0,0,0-.344-.288c-.375-.22-.577-.029-.577.352a1.209,1.209,0,0,0,.567,1.015.812.812,0,0,0,.364.123Z" transform="translate(-566.213 -365.272)"/>
            <path id="Path_574" data-name="Path 574" d="M584.2,377.292c0,.675-.418.724-.813.493a1.681,1.681,0,0,1-.782-1.4c0-.611.357-.76.809-.495A1.671,1.671,0,0,1,584.2,377.292Zm-1.3-.74a1.2,1.2,0,0,0,.5.992c.284.166.5-.007.5-.418a1.191,1.191,0,0,0-.49-.988C583.055,375.932,582.9,376.205,582.9,376.552Z" transform="translate(-568.454 -366.549)"/>
            <path id="Path_575" data-name="Path 575" d="M587.513,378.369c0-.189,0-.345-.014-.5l.263.154.017.311.007,0c.081-.126.271-.185.541-.026a1.266,1.266,0,0,1,.577,1.114v1.09l-.3-.174v-1.052a.837.837,0,0,0-.378-.761c-.2-.114-.348-.049-.4.107a.411.411,0,0,0-.02.142v1.1l-.3-.174v-1.331Z" transform="translate(-571.392 -367.81)"/>
            <path id="Path_576" data-name="Path 576" d="M592.265,379.7v.524l.425.249v.253l-.425-.249v.984a.5.5,0,0,0,.223.485.746.746,0,0,0,.172.078l.013.257a.8.8,0,0,1-.264-.109.846.846,0,0,1-.32-.327,1.072,1.072,0,0,1-.115-.542v-1l-.253-.148v-.253l.253.148v-.438Z" transform="translate(-573.926 -368.861)"/>
            <path id="Path_577" data-name="Path 577" d="M595.693,384.769l-.024-.243-.01-.006c-.091.09-.267.116-.5-.021a1.011,1.011,0,0,1-.5-.816c0-.441.351-.477.982-.1v-.038a.776.776,0,0,0-.8-.753l-.068-.258a.908.908,0,0,1,.537.152,1.22,1.22,0,0,1,.621,1.11v.683a3.248,3.248,0,0,0,.027.454Zm-.044-.957c-.324-.2-.691-.349-.691.006a.566.566,0,0,0,.28.481c.212.124.347.053.395-.074a.29.29,0,0,0,.017-.1Z" transform="translate(-575.69 -370.605)"/>
            <path id="Path_578" data-name="Path 578" d="M600.04,387.461a1.089,1.089,0,0,1-.47-.169,1.676,1.676,0,0,1-.813-1.408c0-.562.344-.768.877-.455a1.8,1.8,0,0,1,.412.335l-.068.217a1.282,1.282,0,0,0-.344-.288c-.375-.22-.577-.028-.577.352a1.208,1.208,0,0,0,.567,1.014.812.812,0,0,0,.364.124Z" transform="translate(-578.148 -372.26)"/>
            <path id="Path_579" data-name="Path 579" d="M603.025,386v.524l.425.249v.252l-.425-.249v.984a.5.5,0,0,0,.223.485.771.771,0,0,0,.172.078l.013.257a.792.792,0,0,1-.263-.109.853.853,0,0,1-.32-.327,1.076,1.076,0,0,1-.115-.543v-1l-.253-.148v-.253l.253.148v-.437Z" transform="translate(-580.384 -372.642)"/>
            <path id="Path_580" data-name="Path 580" class="cls-21" d="M547.412,366.749c0-.141,0-.258-.01-.376l.2.116.012.234.005,0c.061-.094.2-.138.405-.02a.95.95,0,0,1,.433.836v.816l-.223-.13v-.789a.627.627,0,0,0-.284-.57c-.147-.086-.261-.037-.3.079a.314.314,0,0,0-.015.107v.822l-.223-.13Z" transform="translate(-547.328 -360.912)"/>
            <path id="Path_581" data-name="Path 581" class="cls-21" d="M551.475,370.336l-.018-.183-.008,0c-.068.068-.2.086-.375-.016a.758.758,0,0,1-.375-.612c0-.33.263-.357.737-.077v-.028a.531.531,0,0,0-.278-.479.538.538,0,0,0-.32-.085l-.05-.194a.682.682,0,0,1,.4.114.915.915,0,0,1,.466.832v.511a2.45,2.45,0,0,0,.02.339Zm-.033-.717c-.243-.148-.519-.261-.519,0a.425.425,0,0,0,.21.36c.16.093.261.04.3-.056a.214.214,0,0,0,.012-.072v-.237Z" transform="translate(-549.307 -362.281)"/>
            <path id="Path_582" data-name="Path 582" class="cls-21" d="M553.979,370.6c0-.142,0-.258-.01-.376l.195.114.01.226.008,0c.068-.09.182-.144.385-.026a.815.815,0,0,1,.347.477l.005,0a.237.237,0,0,1,.137-.1.347.347,0,0,1,.271.062.93.93,0,0,1,.4.829v.805l-.218-.128v-.774a.625.625,0,0,0-.266-.577.165.165,0,0,0-.263.072.353.353,0,0,0-.018.114v.844l-.218-.127v-.819a.6.6,0,0,0-.256-.525.172.172,0,0,0-.276.087.3.3,0,0,0-.018.111v.825l-.218-.127v-1Z" transform="translate(-551.269 -363.221)"/>
            <path id="Path_583" data-name="Path 583" class="cls-21" d="M559.268,374.383a.844.844,0,0,0,.42.721.824.824,0,0,0,.34.128l.038.2a1.013,1.013,0,0,1-.408-.154,1.223,1.223,0,0,1-.6-1.042c0-.412.218-.61.575-.4a1.109,1.109,0,0,1,.507.941.933.933,0,0,1-.008.111Zm.653.2a.673.673,0,0,0-.309-.585c-.225-.132-.325.042-.342.2Z" transform="translate(-554.321 -365.34)"/>
            <path id="Path_584" data-name="Path 584" class="cls-21" d="M563.478,377.482a.894.894,0,0,1-.451-.151,1.639,1.639,0,0,1-.767-1.33c0-.582.362-.873.924-.543a1.524,1.524,0,0,1,.737,1.248c0,.424-.212.548-.45.409a.4.4,0,0,1-.188-.358l-.01-.006c-.089.115-.205.128-.357.04a.62.62,0,0,1-.274-.516c0-.35.248-.524.6-.318a1.189,1.189,0,0,1,.271.217l-.086.461c-.038.192-.008.308.076.36.13.078.274-.029.274-.357a1.247,1.247,0,0,0-.613-1.062c-.413-.242-.759-.08-.759.493a1.364,1.364,0,0,0,.651,1.144.756.756,0,0,0,.382.125Zm-.14-1.3a.762.762,0,0,0-.126-.094c-.223-.13-.4,0-.4.273a.356.356,0,0,0,.167.312c.147.086.281-.044.309-.2Z" transform="translate(-556.245 -366.281)"/>
            <path id="Path_585" data-name="Path 585" class="cls-21" d="M567.109,378.975a.844.844,0,0,0,.421.721.833.833,0,0,0,.339.128l.038.2a1.007,1.007,0,0,1-.408-.154,1.222,1.222,0,0,1-.6-1.042c0-.413.218-.61.575-.4a1.111,1.111,0,0,1,.507.941.842.842,0,0,1-.008.111Zm.654.2a.673.673,0,0,0-.309-.585c-.225-.132-.324.042-.342.2Z" transform="translate(-559.028 -368.095)"/>
            <path id="Path_586" data-name="Path 586" class="cls-21" d="M570.276,380.138c0-.141,0-.258-.01-.376l.195.114.01.226.008,0c.069-.09.182-.144.385-.026a.818.818,0,0,1,.347.477l.005,0a.234.234,0,0,1,.137-.1.348.348,0,0,1,.271.062.929.929,0,0,1,.4.829v.805l-.218-.128v-.774a.626.626,0,0,0-.266-.577.165.165,0,0,0-.263.072.347.347,0,0,0-.018.114v.845l-.218-.127v-.819a.594.594,0,0,0-.256-.525.172.172,0,0,0-.276.087.289.289,0,0,0-.018.111v.825l-.218-.128v-1Z" transform="translate(-561.05 -368.947)"/>
            <path id="Path_587" data-name="Path 587" class="cls-21" d="M576.107,384.76l-.018-.183-.008,0c-.068.068-.2.086-.375-.016a.759.759,0,0,1-.375-.612c0-.33.263-.357.737-.077v-.028a.583.583,0,0,0-.6-.565l-.05-.194a.682.682,0,0,1,.4.114.915.915,0,0,1,.466.833v.511a2.384,2.384,0,0,0,.02.34Zm-.033-.717c-.243-.148-.519-.262-.519,0a.425.425,0,0,0,.21.36c.159.093.261.04.3-.056a.212.212,0,0,0,.012-.072v-.237Z" transform="translate(-564.09 -370.938)"/>
            <path id="Path_588" data-name="Path 588" class="cls-21" d="M578.832,383.675c0,.086-.053.121-.142.069a.288.288,0,0,1-.134-.231c0-.088.058-.122.139-.074A.288.288,0,0,1,578.832,383.675Zm-.248,1.606v-1.367l.223.13v1.367Z" transform="translate(-566.025 -371.141)"/>
            <path id="Path_589" data-name="Path 589" class="cls-21" d="M580.108,383.93l.223.13v2.006l-.223-.13Z" transform="translate(-566.956 -371.448)"/>
            <path id="Path_590" data-name="Path 590" class="cls-21" d="M581.407,389.169c0-.1.063-.141.152-.089a.319.319,0,0,1,.149.266c0,.1-.058.144-.152.089A.324.324,0,0,1,581.407,389.169Z" transform="translate(-567.736 -374.525)"/>
            <path id="Path_591" data-name="Path 591" class="cls-21" d="M583.591,389.253a.807.807,0,0,1-.352-.127,1.255,1.255,0,0,1-.61-1.055c0-.421.258-.575.658-.34a1.356,1.356,0,0,1,.309.251l-.051.162a.961.961,0,0,0-.258-.216c-.281-.165-.433-.022-.433.263a.907.907,0,0,0,.425.761.6.6,0,0,0,.273.092Z" transform="translate(-568.469 -373.663)"/>
            <path id="Path_592" data-name="Path 592" class="cls-21" d="M586.627,390.36c0,.506-.314.542-.61.369a1.261,1.261,0,0,1-.587-1.047c0-.458.268-.569.608-.37A1.252,1.252,0,0,1,586.627,390.36Zm-.973-.555a.9.9,0,0,0,.373.743c.213.125.372-.006.372-.313a.891.891,0,0,0-.367-.741C585.768,389.34,585.654,389.545,585.654,389.805Z" transform="translate(-570.15 -374.621)"/>
            <path id="Path_593" data-name="Path 593" class="cls-21" d="M589.113,391.168c0-.142,0-.258-.01-.375l.195.114.01.226.008,0c.068-.09.182-.144.385-.026a.813.813,0,0,1,.347.477l.005,0a.237.237,0,0,1,.137-.1.346.346,0,0,1,.271.062.929.929,0,0,1,.4.829v.805l-.218-.127v-.775a.626.626,0,0,0-.266-.577.165.165,0,0,0-.263.072.353.353,0,0,0-.018.114v.844l-.218-.128V391.8a.6.6,0,0,0-.256-.525.172.172,0,0,0-.276.087.293.293,0,0,0-.018.111v.825l-.218-.127v-1Z" transform="translate(-572.355 -375.567)"/>
            <path id="Path_594" data-name="Path 594" class="cls-21" d="M547.952,377.7v.664l.573.335v.17l-.573-.335v.67l-.162-.095v-.669l-.573-.335v-.17l.573.335v-.664Z" transform="translate(-547.217 -367.654)"/>
            <path id="Path_595" data-name="Path 595" class="cls-21" d="M551.731,379.126l-.005,0-.287,0-.042-.214.359,0,.19.111v1.836l-.215-.126Z" transform="translate(-549.726 -368.435)"/>
            <path id="Path_596" data-name="Path 596" class="cls-21" d="M554.272,382.14v-.153l.175-.087c.42-.2.61-.326.613-.6a.624.624,0,0,0-.327-.55.411.411,0,0,0-.35-.049l-.071-.217a.564.564,0,0,1,.466.087,1,1,0,0,1,.5.829c0,.339-.22.484-.567.654l-.132.058v.006l.74.433v.206Z" transform="translate(-551.451 -369.367)"/>
            <path id="Path_597" data-name="Path 597" class="cls-21" d="M558.42,383.234a1.034,1.034,0,0,0-.168-.087c-.349-.14-.534.038-.572.318l.008,0c.078-.07.216-.086.4.021a1.054,1.054,0,0,1,.5.884c0,.336-.2.527-.547.326a1.3,1.3,0,0,1-.582-1.124c0-.361.116-.579.278-.665a.61.61,0,0,1,.526.038,1.336,1.336,0,0,1,.162.081v.2Zm-.063,1.022a.717.717,0,0,0-.339-.62c-.134-.078-.258-.058-.319.04a.148.148,0,0,0-.026.095.858.858,0,0,0,.362.738C558.228,384.622,558.357,384.519,558.357,384.256Z" transform="translate(-553.36 -370.811)"/>
            <path id="Path_598" data-name="Path 598" class="cls-21" d="M561.743,384.827l-.628-.368-.064.435a1.126,1.126,0,0,1,.134.068,1.3,1.3,0,0,1,.355.307,1,1,0,0,1,.235.609c0,.359-.256.477-.613.268a1.529,1.529,0,0,1-.41-.353l.056-.157a1.409,1.409,0,0,0,.352.308c.21.123.39.076.39-.17a.825.825,0,0,0-.474-.684,2.057,2.057,0,0,0-.228-.114l.107-.819.787.461v.209Z" transform="translate(-555.341 -371.585)"/>
            <path id="Path_599" data-name="Path 599" class="cls-21" d="M563.97,387.435c0-.232.124-.323.327-.3l0-.01a.891.891,0,0,1-.261-.565c0-.291.22-.359.509-.191a.923.923,0,0,1,.478.732c0,.156-.068.282-.271.271v.008a1.008,1.008,0,0,1,.331.669c0,.319-.245.39-.56.206A1.059,1.059,0,0,1,563.97,387.435Zm.886.508a.864.864,0,0,0-.362-.613c-.192-.05-.3.03-.3.205a.658.658,0,0,0,.33.543C564.727,388.194,564.856,388.132,564.856,387.943Zm-.613-1.277a.749.749,0,0,0,.314.523c.142.03.251-.02.251-.186a.549.549,0,0,0-.279-.463C564.344,386.431,564.243,386.508,564.243,386.666Z" transform="translate(-557.271 -372.858)"/>
            <path id="Path_600" data-name="Path 600" class="cls-21" d="M567.977,388.639l0,0-.287,0-.043-.214.359,0,.19.111v1.836l-.216-.126Z" transform="translate(-559.476 -374.144)"/>
            <path id="Path_601" data-name="Path 601" class="cls-21" d="M570.519,391.654V391.5l.175-.087c.42-.2.61-.326.613-.6a.624.624,0,0,0-.327-.55.414.414,0,0,0-.349-.05l-.071-.216a.563.563,0,0,1,.466.086,1,1,0,0,1,.5.829c0,.339-.221.484-.567.654l-.132.058v.006l.739.433v.206Z" transform="translate(-561.201 -375.077)"/>
            <path id="Path_602" data-name="Path 602" class="cls-21" d="M573.809,393.269a1.443,1.443,0,0,0,.365.329c.286.168.375.016.372-.138a.793.793,0,0,0-.425-.617l-.124-.073v-.187l.124.073c.162.1.367.122.367-.1a.531.531,0,0,0-.289-.446.494.494,0,0,0-.329-.072l-.058-.215a.668.668,0,0,1,.43.11.885.885,0,0,1,.471.714.229.229,0,0,1-.3.254v.006a.95.95,0,0,1,.367.687c0,.293-.205.431-.6.2a1.605,1.605,0,0,1-.428-.375Z" transform="translate(-563.139 -376.186)"/>
            <path id="Path_603" data-name="Path 603" class="cls-21" d="M579.067,395.133l-.005,0-.287,0-.042-.215.359,0,.19.111v1.836l-.215-.126Z" transform="translate(-566.131 -378.042)"/>
            <path id="Path_604" data-name="Path 604" class="cls-21" d="M581.608,398.147v-.153l.175-.087c.42-.2.61-.326.613-.6a.624.624,0,0,0-.327-.55.413.413,0,0,0-.35-.05l-.071-.216a.564.564,0,0,1,.466.086,1,1,0,0,1,.5.829c0,.339-.22.484-.567.654l-.132.058v.006l.74.433v.206Z" transform="translate(-567.857 -378.974)"/>
            <path id="Path_605" data-name="Path 605" class="cls-21" d="M584.808,399.637c0-.232.124-.323.327-.3l0-.01a.89.89,0,0,1-.261-.565c0-.291.22-.359.509-.191a.922.922,0,0,1,.478.732c0,.156-.068.282-.271.271v.008a1.01,1.01,0,0,1,.331.669c0,.319-.245.39-.56.206A1.059,1.059,0,0,1,584.808,399.637Zm.886.508a.863.863,0,0,0-.362-.613c-.192-.051-.3.03-.3.2a.659.659,0,0,0,.329.543C585.565,400.4,585.694,400.334,585.694,400.145Zm-.613-1.277a.751.751,0,0,0,.314.523c.142.029.251-.02.251-.187a.55.55,0,0,0-.279-.463C585.182,398.633,585.081,398.709,585.081,398.868Z" transform="translate(-569.777 -380.181)"/>
            <path id="Path_606" data-name="Path 606" class="cls-21" d="M589.562,402.716a1.283,1.283,0,0,0,.18.1.369.369,0,0,0,.563-.337l-.008,0c-.092.071-.223.067-.388-.029a1.034,1.034,0,0,1-.486-.846c0-.347.225-.521.562-.324a1.253,1.253,0,0,1,.544,1.093c0,.4-.122.615-.284.7a.566.566,0,0,1-.479-.035,1.312,1.312,0,0,1-.205-.106v-.2Zm.082-1.009a.682.682,0,0,0,.317.575c.149.088.266.074.324,0a.118.118,0,0,0,.021-.078.844.844,0,0,0-.337-.751C589.778,401.339,589.643,401.447,589.643,401.706Z" transform="translate(-572.546 -381.806)"/>
            <path id="Path_607" data-name="Path 607" class="cls-21" d="M593.759,404.434c0,.624-.208.847-.573.633a1.436,1.436,0,0,1-.544-1.262c0-.616.238-.815.572-.62A1.387,1.387,0,0,1,593.759,404.434Zm-.894-.495a1.1,1.1,0,0,0,.334.944c.227.134.337-.1.337-.569,0-.452-.1-.809-.334-.944C593.007,403.256,592.865,403.439,592.865,403.939Z" transform="translate(-574.479 -382.961)"/>
          </g>
        </g>
        <g id="Group_251" data-name="Group 251" transform="translate(59.542 30.951)">
          <path id="Path_608" data-name="Path 608" class="cls-22" d="M638.4,376.574a11.731,11.731,0,0,1,5.326,9.226c-.009,3.394-2.407,4.761-5.361,3.055a11.729,11.729,0,0,1-5.326-9.225C633.044,376.235,635.442,374.868,638.4,376.574Z" transform="translate(-633.035 -375.84)"/>
        </g>
        <path id="Path_609" data-name="Path 609" class="cls-27" d="M643.939,390.195l1.184-.675c.229-.132.23-.567,0-.972a1.2,1.2,0,0,0-.428-.453.431.431,0,0,0-.43-.043l-1.175.67-1.166-2.022a1.237,1.237,0,0,0-.428-.452.431.431,0,0,0-.43-.042c-.228.142-.228.578,0,.972l1.167,2.034-1.175.669c-.229.131-.23.568,0,.972a1.226,1.226,0,0,0,.428.453.431.431,0,0,0,.429.041l1.175-.669,1.166,2.02a1.239,1.239,0,0,0,.428.454.425.425,0,0,0,.429.041c.229-.141.231-.575,0-.972Z" transform="translate(-578.207 -351.085)"/>
      </g>
      <g id="Group_255" data-name="Group 255" transform="translate(26.556 201.594)">
        <path id="Path_610" data-name="Path 610" class="cls-28" d="M132.913,414.256,85.025,386.608l-1.142-5.149c-1.036-4.677-4.906-10.243-8.6-12.375L43.992,351.018c-3.693-2.133-7.582-1.048-8.642,2.42l-1.166,3.816-.852-.492c-3.693-2.131-6.724-.4-6.736,3.839l-.039,14.149a14.8,14.8,0,0,0,6.691,11.59l99.583,57.494c3.693,2.133,6.723.405,6.736-3.838l.04-14.148A14.806,14.806,0,0,0,132.913,414.256Z" transform="translate(-26.556 -349.925)"/>
        <path id="Path_611" data-name="Path 611" class="cls-29" d="M138.771,441.825,40.865,385.3c-1.235-.713-2.238-.142-2.242,1.278l-.038,13.284a4.92,4.92,0,0,0,2.228,3.867l97.9,56.525c1.236.714,2.246.138,2.249-1.282l.038-13.285A4.923,4.923,0,0,0,138.771,441.825Z" transform="translate(-33.775 -370.97)"/>
        <path id="Path_612" data-name="Path 612" class="cls-30" d="M140.055,459.524,42.15,403a4.92,4.92,0,0,1-2.228-3.867l.038-13.284a2.16,2.16,0,0,1,.149-.809c-.861-.14-1.483.441-1.485,1.555l-.038,13.284a4.919,4.919,0,0,0,2.228,3.867l97.9,56.525c.96.555,1.777.323,2.1-.469A2.2,2.2,0,0,1,140.055,459.524Z" transform="translate(-33.775 -370.986)"/>
        <g id="Group_254" data-name="Group 254" transform="translate(9.059 23.346)">
          <g id="Group_253" data-name="Group 253">
            <path id="Path_613" data-name="Path 613" class="cls-21" d="M53.446,417.707l-.1-1.029-.041-.024c-.374.391-1.094.521-2.048-.028a4.153,4.153,0,0,1-2.048-3.4c0-1.868,1.439-2.062,4.026-.559v-.16a2.927,2.927,0,0,0-1.522-2.663,2.8,2.8,0,0,0-1.743-.427l-.277-1.086a3.551,3.551,0,0,1,2.2.579,5.043,5.043,0,0,1,2.546,4.625v2.89a13.854,13.854,0,0,0,.111,1.916Zm-.18-4.047c-1.328-.8-2.837-1.391-2.837.109a2.325,2.325,0,0,0,1.148,2c.872.5,1.425.181,1.619-.362a1.283,1.283,0,0,0,.069-.407Z" transform="translate(-49.212 -408.31)"/>
            <path id="Path_614" data-name="Path 614" class="cls-21" d="M72.265,414.985v9.341c0,.687.014,1.477.055,2.027l-1.093-.629-.055-1.373-.028-.016c-.374.647-1.19.832-2.283.2A6.643,6.643,0,0,1,66,418.965c-.014-2.579,1.37-3.364,3-2.425a4.785,4.785,0,0,1,2.02,2.343l.028.016v-4.614Zm-1.218,6.054a3.319,3.319,0,0,0-.056-.623,4,4,0,0,0-1.757-2.639c-1.259-.725-2.006.124-2.006,1.832a4.6,4.6,0,0,0,1.978,4c.817.47,1.563.276,1.785-.65a2.378,2.378,0,0,0,.056-.575v-1.341Z" transform="translate(-59.285 -411.896)"/>
            <path id="Path_615" data-name="Path 615" class="cls-21" d="M86.646,430.011c0-.8-.014-1.461-.056-2.124l1.08.621.069,1.317.028.016c.332-.543,1.107-.816,2.214-.18a5.216,5.216,0,0,1,2.366,4.65v4.615l-1.218-.7V433.77a3.468,3.468,0,0,0-1.549-3.174c-.8-.461-1.425-.165-1.633.5a1.841,1.841,0,0,0-.083.607v4.646l-1.218-.7v-5.637Z" transform="translate(-71.644 -420.059)"/>
            <path id="Path_616" data-name="Path 616" class="cls-21" d="M105.889,444.9a4.622,4.622,0,0,0,2.3,4,4.27,4.27,0,0,0,1.854.667l.208,1.125a5.231,5.231,0,0,1-2.228-.8,6.711,6.711,0,0,1-3.293-5.79c0-2.332,1.19-3.484,3.141-2.362a6.125,6.125,0,0,1,2.767,5.232,5.383,5.383,0,0,1-.042.631Zm3.57,1.046a3.716,3.716,0,0,0-1.688-3.254c-1.232-.708-1.771.291-1.868,1.209Z" transform="translate(-82.529 -428.114)"/>
            <path id="Path_617" data-name="Path 617" class="cls-21" d="M122.393,448.568l.954,2.209c.249.575.457,1.093.678,1.651l.042.024c.222-.336.443-.608.664-.9l.941-1.1,1.315.756-2.283,2.424,2.352,5.344-1.384-.8-.982-2.306c-.263-.6-.484-1.157-.719-1.755l-.028-.016c-.222.336-.457.616-.706.935l-.968,1.184-1.342-.772,2.38-2.575-2.27-5.089Z" transform="translate(-92.251 -432.002)"/>
            <path id="Path_618" data-name="Path 618" class="cls-21" d="M140.327,452.526c.014.487-.291.695-.775.417a1.585,1.585,0,0,1-.734-1.284c0-.495.318-.695.761-.441A1.574,1.574,0,0,1,140.327,452.526Zm-1.356,9.12v-7.728l1.218.7v7.728Z" transform="translate(-102.988 -433.995)"/>
            <path id="Path_619" data-name="Path 619" class="cls-21" d="M152.632,471.534c0,2.858-1.716,3.117-3.335,2.186a6.923,6.923,0,0,1-3.21-5.822c0-2.587,1.467-3.26,3.321-2.194A6.882,6.882,0,0,1,152.632,471.534Zm-5.313-2.976a4.956,4.956,0,0,0,2.034,4.14c1.162.668,2.034-.092,2.034-1.833a4.936,4.936,0,0,0-2.006-4.124C147.942,465.915,147.319,467.09,147.319,468.559Z" transform="translate(-107.351 -442.464)"/>
            <path id="Path_620" data-name="Path 620" class="cls-21" d="M164.743,489.1c0-.591.346-.807.83-.528a1.755,1.755,0,0,1,.817,1.475c0,.575-.318.823-.83.528A1.776,1.776,0,0,1,164.743,489.1Z" transform="translate(-118.547 -456.405)"/>
            <path id="Path_621" data-name="Path 621" class="cls-21" d="M172.551,479.4c0-.8-.014-1.461-.056-2.124l1.066.613.055,1.277.042.024c.373-.52,1-.848,2.1-.212a4.4,4.4,0,0,1,1.9,2.639l.028.016a1.351,1.351,0,0,1,.747-.576,1.814,1.814,0,0,1,1.48.308,5.12,5.12,0,0,1,2.2,4.618v4.551l-1.19-.684v-4.375a3.472,3.472,0,0,0-1.453-3.215.908.908,0,0,0-1.439.45,2.066,2.066,0,0,0-.1.647v4.774l-1.19-.684v-4.63a3.291,3.291,0,0,0-1.4-2.927.951.951,0,0,0-1.508.538,1.721,1.721,0,0,0-.1.631v4.662l-1.19-.684V479.4Z" transform="translate(-123.199 -449.701)"/>
            <path id="Path_622" data-name="Path 622" class="cls-21" d="M200.163,493.188l1.467,5.41c.152.6.318,1.3.429,1.827l.028.016c.124-.391.263-.9.429-1.366l1.328-3.771,1.287.74L203.3,500.5c-.872,2.149-1.466,3.164-2.3,3.517a2.062,2.062,0,0,1-1.494.051l-.3-1.357a1.9,1.9,0,0,0,1.065-.074,1.878,1.878,0,0,0,1.024-.976.7.7,0,0,0,.1-.279,1.913,1.913,0,0,0-.083-.415l-2.477-8.545Z" transform="translate(-139.007 -458.79)"/>
          </g>
        </g>
        <path id="Path_623" data-name="Path 623" class="cls-31" d="M151.462,416.675l1.008-.574c.2-.112.2-.483,0-.828a1.03,1.03,0,0,0-.365-.385.369.369,0,0,0-.365-.037l-1,.57-.992-1.72a1.05,1.05,0,0,0-.364-.385.368.368,0,0,0-.366-.035c-.194.121-.194.492,0,.827l.993,1.731-1,.569c-.2.112-.2.482,0,.827a1.042,1.042,0,0,0,.364.385.37.37,0,0,0,.366.035l1-.569.992,1.719a1.068,1.068,0,0,0,.365.386.366.366,0,0,0,.366.035c.194-.121.2-.491,0-.827Z" transform="translate(-99.96 -387.927)"/>
      </g>
      <path id="Path_624" data-name="Path 624" class="cls-2" d="M469.162,135.287h3.8v3.8a3.155,3.155,0,0,0,3.154,3.155h.263a3.155,3.155,0,0,0,3.155-3.155v-3.8h3.8a3.155,3.155,0,0,0,3.155-3.154v-.263a3.155,3.155,0,0,0-3.155-3.154h-2.615a42.883,42.883,0,0,1-14.22,5.106A3.144,3.144,0,0,0,469.162,135.287Z" transform="translate(-264.033 -15.573)"/>
      <path id="Path_625" data-name="Path 625" class="cls-32" d="M477.991,109.724h-3.8v-3.8a3.155,3.155,0,0,0-3.155-3.154h-.263a3.155,3.155,0,0,0-3.154,3.154v3.8h-3.8a3.155,3.155,0,0,0-3.154,3.155v.263a3.154,3.154,0,0,0,3.154,3.154h3.8v3.8a3.154,3.154,0,0,0,3.154,3.154h.263a3.155,3.155,0,0,0,3.155-3.154v-3.8h3.8a3.155,3.155,0,0,0,3.155-3.154v-.263A3.155,3.155,0,0,0,477.991,109.724Z" transform="translate(-260.523 0)"/>
      <g id="Group_256" data-name="Group 256" transform="translate(233.635 284.152)">
        <path id="Path_626" data-name="Path 626" class="cls-2" d="M548.134,580.924a3.7,3.7,0,0,1-2.832-6.071l8.883-10.6A3.693,3.693,0,0,1,558.1,563.1l10.878,3.339,7.3-8.717a3.7,3.7,0,0,1,3.921-1.16l13.216,4.061a3.7,3.7,0,0,1-2.171,7.066l-10.872-3.341-7.3,8.718a3.7,3.7,0,0,1-3.919,1.16l-10.877-3.34-7.308,8.722A3.7,3.7,0,0,1,548.134,580.924Z" transform="translate(-544.439 -556.395)"/>
      </g>
      <g id="Group_257" data-name="Group 257" transform="translate(229.833 278.917)">
        <path id="Path_627" data-name="Path 627" class="cls-33" d="M538.627,567.832a3.7,3.7,0,0,1-2.832-6.07l8.883-10.6A3.694,3.694,0,0,1,548.6,550l10.878,3.34,7.3-8.717a3.7,3.7,0,0,1,3.921-1.16l13.216,4.061a3.7,3.7,0,0,1-2.17,7.066l-10.872-3.342-7.3,8.718a3.7,3.7,0,0,1-3.92,1.16l-10.876-3.34-7.308,8.721A3.693,3.693,0,0,1,538.627,567.832Z" transform="translate(-534.932 -543.302)"/>
      </g>
    </g>
  </g>
</svg>
