<svg xmlns="http://www.w3.org/2000/svg" xmlns:xlink="http://www.w3.org/1999/xlink" viewBox="0 0 276 236">
  <defs>
    <style>
      .cls-1 {
        clip-path: url(#clip-img_resume_result);
      }

      .cls-2 {
        fill: #e0e0e2;
      }

      .cls-3 {
        fill: url(#linear-gradient);
      }

      .cls-15, .cls-4 {
        fill: #eeedf3;
      }

      .cls-4 {
        opacity: 0.2;
      }

      .cls-5 {
        fill: #ff3131;
      }

      .cls-6 {
        fill: #ff7373;
      }

      .cls-7 {
        fill: #010080;
      }

      .cls-8 {
        fill: #f8b7b0;
      }

      .cls-9 {
        fill: #e49f98;
      }

      .cls-10 {
        fill: #77d2ff;
      }

      .cls-11 {
        fill: url(#linear-gradient-2);
      }

      .cls-12 {
        fill: #4003a9;
      }

      .cls-13 {
        fill: url(#linear-gradient-3);
      }

      .cls-14 {
        fill: #eefaff;
      }

      .cls-16 {
        fill: #c8c7d9;
      }

      .cls-17 {
        fill: #3f3f3f;
        opacity: 0.1;
      }

      .cls-18 {
        fill: url(#linear-gradient-4);
      }

      .cls-19 {
        fill: #fff;
      }

      .cls-20 {
        fill: #e2e2e2;
      }

      .cls-21 {
        fill: #f8aa00;
      }

      .cls-22 {
        fill: #fb3;
      }

      .cls-23 {
        fill: #ed9e00;
      }

      .cls-24 {
        fill: url(#linear-gradient-5);
      }

      .cls-25 {
        fill: #ffb6ea;
      }

      .cls-26 {
        fill: #ff3158;
      }

      .cls-27 {
        fill: #ff7d43;
      }

      .cls-28 {
        fill: url(#linear-gradient-6);
      }

      .cls-29 {
        fill: url(#linear-gradient-7);
      }
    </style>
    <linearGradient id="linear-gradient" x1="0.422" y1="0.038" x2="0.622" y2="1.222" gradientUnits="objectBoundingBox">
      <stop offset="0" stop-color="aqua"/>
      <stop offset="0.369" stop-color="#0071bc"/>
      <stop offset="0.761" stop-color="#9e005d"/>
      <stop offset="1" stop-color="#ed1e79"/>
    </linearGradient>
    <linearGradient id="linear-gradient-2" x1="0.632" y1="1.011" x2="0.364" y2="-0.153" gradientUnits="objectBoundingBox">
      <stop offset="0" stop-color="#3301a0"/>
      <stop offset="1" stop-color="#6a01a0"/>
    </linearGradient>
    <linearGradient id="linear-gradient-3" x1="0.47" y1="1.014" x2="0.517" y2="0.048" gradientUnits="objectBoundingBox">
      <stop offset="0" stop-color="#f7631e"/>
      <stop offset="1" stop-color="#febc66"/>
    </linearGradient>
    <linearGradient id="linear-gradient-4" x1="0.762" y1="1.479" x2="0.133" y2="-0.962" gradientUnits="objectBoundingBox">
      <stop offset="0" stop-color="aqua"/>
      <stop offset="1" stop-color="#9e005d"/>
    </linearGradient>
    <linearGradient id="linear-gradient-5" x1="1.141" y1="0.558" x2="0.199" y2="0.448" gradientUnits="objectBoundingBox">
      <stop offset="0" stop-color="aqua"/>
      <stop offset="0.693" stop-color="#9e005d"/>
      <stop offset="1" stop-color="#ed1e79"/>
    </linearGradient>
    <linearGradient id="linear-gradient-6" x1="-0.05" y1="1.38" x2="2.932" y2="-3.392" xlink:href="#linear-gradient-5"/>
    <linearGradient id="linear-gradient-7" x1="-0.817" y1="1.854" x2="3.199" y2="-2.274" xlink:href="#linear-gradient-5"/>
    <clipPath id="clip-img_resume_result">
      <rect width="276" height="236"/>
    </clipPath>
  </defs>
  <g id="img_resume_result" class="cls-1">
    <g id="img_resume_result-2" data-name="img_resume_result" transform="translate(-14.023 -29.465)">
      <path id="Path_628" data-name="Path 628" class="cls-2" d="M280.647,657.741c0,1.961-12.6,3.551-28.149,3.551s-28.147-1.59-28.147-3.551,12.6-3.552,28.147-3.552S280.647,655.779,280.647,657.741Z" transform="translate(-118.228 -397.493)"/>
      <g id="Group_261" data-name="Group 261" transform="translate(100.357 67.99)">
        <g id="Group_260" data-name="Group 260" transform="translate(0 0)">
          <g id="Group_259" data-name="Group 259">
            <g id="Group_258" data-name="Group 258">
              <path id="Path_629" data-name="Path 629" class="cls-3" d="M327.554,153.452,259.546,128.2a3.97,3.97,0,0,0-5.094,2.344L208.521,254.258a3.959,3.959,0,0,0,2.332,5.089l68.01,25.251a3.959,3.959,0,0,0,5.088-2.333l45.933-123.712A3.971,3.971,0,0,0,327.554,153.452Z" transform="translate(-208.272 -127.955)"/>
            </g>
          </g>
        </g>
      </g>
      <g id="Group_262" data-name="Group 262" transform="translate(111.712 77.04)">
        <path id="Path_630" data-name="Path 630" class="cls-4" d="M345.207,163.518l-7.518,5.048-65.78,44.157-10.425,7,14.335-38.638,10.436-6.993,23.613-15.855,7.517-5.049Z" transform="translate(-253.759 -153.192)"/>
        <path id="Path_631" data-name="Path 631" class="cls-4" d="M346.37,190.99l-7.53,5.048-88.476,59.389v.011l-10.425,6.992,5.048-13.6v-.011l10.436-6.993v-.011L329.039,192.4l7.528-5.049Z" transform="translate(-239.939 -175.102)"/>
      </g>
      <g id="Group_263" data-name="Group 263" transform="translate(179.157 158.759)">
        <rect id="Rectangle_762" data-name="Rectangle 762" class="cls-5" width="56.252" height="31.753" transform="translate(0.007 8.856) rotate(-9.05)"/>
        <path id="Path_632" data-name="Path 632" class="cls-6" d="M458.291,401.182l25.278-20.1-55.55,8.848Z" transform="translate(-428.018 -381.079)"/>
      </g>
      <g id="Group_265" data-name="Group 265" transform="translate(99.397 99.119)">
        <path id="Path_633" data-name="Path 633" class="cls-7" d="M369.291,236.671c2.148-1.872,4.026-11.044-.776-8.741s-1.145,8.806-1.145,8.806Z" transform="translate(-308.503 -222.972)"/>
        <path id="Path_634" data-name="Path 634" class="cls-8" d="M366.829,280.394a8.943,8.943,0,0,0,8.484-1.979c1.027-1.02-1.682-2.507-2.572-3.768a3.423,3.423,0,0,1-.35-2.344,27.139,27.139,0,0,1,1.263-4.928l-8.7-2.69s-.267,4.509-.477,6.18a2.505,2.505,0,0,1-.206.764c-.455,1-1.576,1.311-3.444,2.47C358.557,275.512,362.48,279.249,366.829,280.394Z" transform="translate(-304.737 -246.784)"/>
        <path id="Path_635" data-name="Path 635" class="cls-9" d="M372.109,270.863a2.47,2.47,0,0,1-.056.31,5.2,5.2,0,0,0,2.847,2,8.049,8.049,0,0,0,5.228-1.6,34.08,34.08,0,0,1,1.154-4.2l-8.7-2.689S372.318,269.192,372.109,270.863Z" transform="translate(-312.362 -246.783)"/>
        <path id="Path_636" data-name="Path 636" class="cls-8" d="M381.1,236.006c-.975,4.268-1.528,6.325-3.637,7.858a8.447,8.447,0,0,1-5.714,1.933c-1.943-.244-4.445-3.674-4.714-5.565a33.785,33.785,0,0,1,.833-11.579c.616-2.36,3.942-4.9,7-4.514S383.48,225.579,381.1,236.006Z" transform="translate(-309.029 -220.752)"/>
        <path id="Path_637" data-name="Path 637" class="cls-8" d="M364.948,248.731c.153,1.62.965,2.869,1.814,2.788s1.412-1.458,1.259-3.079-.966-2.869-1.815-2.788S364.795,247.112,364.948,248.731Z" transform="translate(-307.789 -234.573)"/>
        <path id="Path_638" data-name="Path 638" class="cls-10" d="M382.544,301.069" transform="translate(-319.091 -270.12)"/>
        <path id="Path_639" data-name="Path 639" class="cls-11" d="M345.488,316.3l-20.066,5.238L320.075,306.4s-4.17,25.38-4.98,28.309c-.783,2.846-1.528,3.023-2.785,2.8l-20.2-3.543c-1.387-.243-2.109-1.9-1.408-4.487.567-2.107,4.97-19.274,5.761-27.161A83.606,83.606,0,0,1,290,314.343l-19.028-7.256,2.1-5.831,13.264,3.644s4.486-9.238,9.455-14.7c1.49-1.64,5.746-3.754,8.312-4.179a14.576,14.576,0,0,1,1.953-.238,4.917,4.917,0,0,0,4.02,4.354c1.77.311,5.336-.272,5.831-2.109a9.783,9.783,0,0,1,2.043,1.073c2.551,1.693,4.169,2.261,5.295,4.487,1.813,3.588,7.352,19.59,7.352,19.59l15.107-3.385Z" transform="translate(-247.529 -260.315)"/>
        <g id="Group_264" data-name="Group 264" transform="translate(0 70.182)">
          <path id="Path_640" data-name="Path 640" class="cls-12" d="M336.663,638.7c.4.9,2.453,3.074,5.414,4.626s9.168,2.913,5.473,3.8-6.157.766-11.746-1.1c-2.349-.678-2.125-.79-4.643-.684s-4.366.771-3.178-4.093S335.384,635.784,336.663,638.7Z" transform="translate(-283.859 -555.728)"/>
          <path id="Path_641" data-name="Path 641" class="cls-12" d="M215.107,580.1c-.2.964-2.74,3.172-5.307,5.314s-5.565,3.264-3.533,4.36c3.52,1.9,5.254.241,10.325-2.76,2.152-1.158,2.048-.725,4.394-1.648,1.6-.632,2.963-1.475,2.242-4.672C222.126,575.811,215.742,576.984,215.107,580.1Z" transform="translate(-205.597 -517.538)"/>
          <path id="Path_642" data-name="Path 642" class="cls-13" d="M289.6,416.429s-2.809,19.526-4.71,31.239c-.219,1.322-.415,2.536-.6,3.584-.262,1.531-.481,2.721-.644,3.443-.285,1.289-.809,3.759-1.443,6.818-.23,1.115-.47,2.3-.732,3.541-2.088,10.206-4.8,23.886-4.928,25.645a28.641,28.641,0,0,0-.023,4,.341.341,0,0,1-.491.329l-2.776-1.279a.363.363,0,0,0-.262-.021c-.9.338-6.076,2.262-6.829,3.147-.831.971.327-2.4.611-6.032.219-2.7,3.464-18.969,5.551-29.186.263-1.291.5-2.481.721-3.541.426-2.076.742-3.638.9-4.371a50.827,50.827,0,0,0,.5-6.141c.054-1.18.1-2.447.142-3.759.206-6.862.239-14.828.251-16.347a.349.349,0,0,0-.262-.328l-4.524-1.2a.28.28,0,0,0-.229.021c-1.158.569-11.55,5.661-16.533,9.945a8.6,8.6,0,0,0-2.469,2.906,2.648,2.648,0,0,0-.12.35c-.995,4.01-1.956,7.255-2.786,9.595-.3.852-.58,1.6-.853,2.2-.131.3-.294.678-.47,1.126-1.836,4.436-5.922,15.374-6.644,17.494-.459,1.322-.023,2.263-.023,3.235,0,1.575-2.534,2.284-3.856,1.65-.984-.469-2.961-1.8-4.121-1.573a.347.347,0,0,1-.436-.4c.743-3.092,3.474-14.357,5.944-23.789.317-1.191.623-2.36.929-3.474a95.178,95.178,0,0,1,3.016-9.9,15.5,15.5,0,0,1,2.141-3.027c5.988-7.08,20.924-20.34,20.924-20.34s.537-1.625,1.434-1.493c1.958.29,2.109.63,12.02,2.612C288.623,415.235,289.914,414.15,289.6,416.429Z" transform="translate(-222.216 -410.476)"/>
        </g>
        <path id="Path_643" data-name="Path 643" class="cls-7" d="M381.424,222.7c-5.909-.686-10.06-1.586-12.066-4.31s-.162-3.029,1.33-2.09a2.044,2.044,0,0,1,3.279-.932,3.783,3.783,0,0,1,5.214,1.138s4.053-1.21,4.408,1.951C383.588,218.455,386.637,223.3,381.424,222.7Z" transform="translate(-310.067 -214.763)"/>
        <path id="Path_644" data-name="Path 644" class="cls-7" d="M403.961,233.255c1.618,2.345,1.17,11.7-2.913,8.278s.559-8.114.559-8.114Z" transform="translate(-329.882 -226.624)"/>
        <ellipse id="Ellipse_23" data-name="Ellipse 23" class="cls-8" cx="1.543" cy="2.947" rx="1.543" ry="2.947" transform="matrix(-0.872, -0.49, 0.49, -0.872, 72.05, 19.025)"/>
        <path id="Path_645" data-name="Path 645" class="cls-7" d="M348.549,413.182,323.8,408.717a.281.281,0,0,1-.215-.37l.871-2.47a.282.282,0,0,1,.312-.184l24.358,4.264a.281.281,0,0,1,.228.326l-.474,2.672A.279.279,0,0,1,348.549,413.182Z" transform="translate(-281.262 -337.224)"/>
        <path id="Path_646" data-name="Path 646" class="cls-14" d="M377.212,289.1a8.012,8.012,0,0,1-7.535,2.97,8.149,8.149,0,0,1-6.312-6.05,14.572,14.572,0,0,1,1.953-.238,4.918,4.918,0,0,0,4.02,4.354c1.77.311,5.336-.272,5.831-2.109A9.782,9.782,0,0,1,377.212,289.1Z" transform="translate(-306.79 -260.316)"/>
        <path id="Path_647" data-name="Path 647" class="cls-7" d="M413.125,230.09a1.3,1.3,0,0,0-.577-1.753l-1.175,2.33A1.305,1.305,0,0,0,413.125,230.09Z" transform="translate(-337.582 -223.47)"/>
        <path id="Path_648" data-name="Path 648" class="cls-7" d="M367.907,224.56a4.116,4.116,0,0,0,2.656-5.181l-7.836,2.525A4.116,4.116,0,0,0,367.907,224.56Z" transform="translate(-306.38 -217.724)"/>
        <path id="Path_649" data-name="Path 649" class="cls-7" d="M379.484,229.226a2.744,2.744,0,0,0,.224-3.872l-4.1,3.648A2.743,2.743,0,0,0,379.484,229.226Z" transform="translate(-314.644 -221.556)"/>
        <path id="Path_650" data-name="Path 650" class="cls-7" d="M412.855,235.092a1.3,1.3,0,0,0,1.032-1.53l-2.562.5A1.3,1.3,0,0,0,412.855,235.092Z" transform="translate(-337.552 -226.821)"/>
      </g>
      <path id="Path_651" data-name="Path 651" class="cls-15" d="M327.561,153.448l-1.5-.558-9.8-3.639-5.18-1.923L283.263,137l-23.71-8.807a3.976,3.976,0,0,0-5.093,2.349L241.7,164.9l-14.335,38.638-2.678,7.179v.011l-5.048,13.6L208.523,254.25a4.1,4.1,0,0,0-.23,1.126,3.924,3.924,0,0,0,2.567,3.966l12.632,4.688,9.529,3.541,25.132,9.331,9.157,3.4,11.56,4.3a3.965,3.965,0,0,0,5.092-2.328L329.048,160.8l.842-2.251A3.963,3.963,0,0,0,327.561,153.448Zm-6.468,7.714-.962,2.579L281.3,268.368a2.15,2.15,0,0,1-2.764,1.256L270,266.455l-10.3-3.824-21.3-7.911L228.65,251.1l-7.769-2.884a2.124,2.124,0,0,1-1.387-1.924,2,2,0,0,1,.119-.831l10.447-28.125v-.011l5.059-13.6v-.011l2.667-7.179,14.347-38.628,7.288-19.636a2.135,2.135,0,0,1,2.753-1.257l13.572,5.038,27.82,10.326,5.169,1.923,9.8,3.639,1.289.48A2.125,2.125,0,0,1,321.093,161.162Z" transform="translate(-107.923 -59.962)"/>
      <g id="Group_266" data-name="Group 266" transform="translate(114.641 204.067)">
        <path id="Path_652" data-name="Path 652" class="cls-2" d="M345.341,546.864l9.146,3.4c.262-1.246.5-2.426.732-3.541l-9.157-3.4C345.843,544.383,345.6,545.574,345.341,546.864Z" transform="translate(-310.473 -530.451)"/>
        <path id="Path_653" data-name="Path 653" class="cls-2" d="M248.106,510.9l9.135,3.388c.175-.448.338-.83.47-1.126.273-.6.557-1.343.853-2.2l-9.529-3.541C248.729,508.542,248.423,509.711,248.106,510.9Z" transform="translate(-248.106 -507.427)"/>
      </g>
      <g id="Group_268" data-name="Group 268" transform="translate(132.589 199.7)">
        <g id="Group_267" data-name="Group 267">
          <path id="Path_654" data-name="Path 654" class="cls-16" d="M300.586,502.467h0a3.726,3.726,0,0,1-2.2-4.788h0a3.724,3.724,0,0,1,4.788-2.195h0a3.724,3.724,0,0,1,2.2,4.787h0A3.724,3.724,0,0,1,300.586,502.467Z" transform="translate(-298.157 -495.249)"/>
        </g>
      </g>
      <path id="Path_655" data-name="Path 655" class="cls-8" d="M260.11,321.777a5.976,5.976,0,0,0,3.228-.478c.735-.386,1.437-2.625,1.666-4.229s-1.841-1.4-1.841-1.4a9.912,9.912,0,0,1,2.124-.5c1.315-.181,1.836-1.682-.069-1.657s-3.759.933-5.524,4.544c0,0-1.809,3.358.011,4.811Z" transform="translate(-140.384 -178.982)"/>
      <path id="Path_656" data-name="Path 656" class="cls-8" d="M495.058,340.022c.009-1.272-2.193-3.313-2.8-2.494s-2.279,3.762-1.99,5.2a7.749,7.749,0,0,0,1.014,2.523l-.419,1.127S495.015,345.537,495.058,340.022Z" transform="translate(-288.768 -194.265)"/>
      <g id="Group_269" data-name="Group 269" transform="translate(47.643 39.353)">
        <path id="Path_657" data-name="Path 657" class="cls-17" d="M254.657,82.338,171.98,89.171a3.622,3.622,0,0,0-3.312,3.909l2,24.189a3.623,3.623,0,0,0,3.909,3.312l8.152-.674,3.955-.327c.78.85,2.769,3.005,3.593,3.786a1.793,1.793,0,0,0,2.619-.217c.685-.9,2.293-3.357,2.923-4.324l20.1-1.662,41.339-3.417a3.622,3.622,0,0,0,3.312-3.909l-2-24.189A3.622,3.622,0,0,0,254.657,82.338Z" transform="translate(-130.149 -70.051)"/>
        <path id="Path_658" data-name="Path 658" class="cls-17" d="M514.1,72.871l-26.051-3.118a2.035,2.035,0,0,0-2.263,1.778l-3.118,26.053a2.037,2.037,0,0,0,1.778,2.262l26.054,3.118a2.034,2.034,0,0,0,2.261-1.779l3.118-26.052A2.035,2.035,0,0,0,514.1,72.871Z" transform="translate(-331.551 -61.978)"/>
        <path id="Path_659" data-name="Path 659" class="cls-17" d="M182.425,224.858a4.725,4.725,0,0,0-5.931-3.078l-30.4,9.627a4.727,4.727,0,0,0-3.079,5.932l6.269,19.791a4.726,4.726,0,0,0,5.932,3.078l2.97-.941s5.541,3.85,7.476,4.992a2.827,2.827,0,0,0,3.952-1.25c.925-2.05,3.24-8.388,3.24-8.388l12.759-4.042a4.725,4.725,0,0,0,3.078-5.932Z" transform="translate(-113.562 -159.355)"/>
        <path id="Path_660" data-name="Path 660" class="cls-17" d="M484.938,248.081a1.452,1.452,0,0,0-2.649-.425l-2.746,4.463L478,245.655a2.434,2.434,0,0,0-2.932-1.8l-17.792,4.239a2.435,2.435,0,0,0-1.8,2.932l4.238,17.792a2.434,2.434,0,0,0,2.932,1.8l17.793-4.239a2.434,2.434,0,0,0,1.8-2.932l-1.54-6.464,4.463,2.746a1.452,1.452,0,0,0,2.173-1.574Z" transform="translate(-314.073 -173.611)"/>
        <path id="Path_661" data-name="Path 661" class="cls-17" d="M71.611,170.083a2.414,2.414,0,0,0-4.454.235l-5.74,16.232a2.414,2.414,0,0,0,3.317,2.982l10.986-5.246a2.414,2.414,0,0,0,1.137-3.218Z" transform="translate(-61.273 -125.458)"/>
        <path id="Path_662" data-name="Path 662" class="cls-17" d="M97.364,48.428a7.079,7.079,0,1,0,8.887,4.61A7.08,7.08,0,0,0,97.364,48.428Z" transform="translate(-81.252 -48.096)"/>
        <path id="Path_663" data-name="Path 663" class="cls-17" d="M634.955,547.017a4.747,4.747,0,1,0,.947,6.647A4.747,4.747,0,0,0,634.955,547.017Z" transform="translate(-424.361 -367.495)"/>
        <path id="Path_664" data-name="Path 664" class="cls-17" d="M612.515,177.394a8.962,8.962,0,1,0-11.68,4.919A8.962,8.962,0,0,0,612.515,177.394Z" transform="translate(-403.768 -123.11)"/>
        <path id="Path_665" data-name="Path 665" class="cls-17" d="M198.938,370.175a12.174,12.174,0,1,0,15.251,7.991A12.174,12.174,0,0,0,198.938,370.175Z" transform="translate(-144.09 -254.321)"/>
      </g>
      <g id="Group_272" data-name="Group 272" transform="translate(81.333 45.724)">
        <g id="Group_271" data-name="Group 271">
          <path id="Path_666" data-name="Path 666" class="cls-18" d="M247.481,65.877l-88.694,7.33a3.887,3.887,0,0,0-3.553,4.193l2.145,25.95a3.887,3.887,0,0,0,4.193,3.553l8.743-.723,4.244-.35c.837.911,2.971,3.225,3.853,4.061a1.924,1.924,0,0,0,2.811-.232c.733-.97,2.459-3.6,3.135-4.639l21.561-1.782,44.347-3.665a3.887,3.887,0,0,0,3.553-4.193l-2.145-25.95A3.886,3.886,0,0,0,247.481,65.877Z" transform="translate(-155.221 -65.863)"/>
          <path id="Path_667" data-name="Path 667" class="cls-19" d="M195.667,114.687a4.274,4.274,0,0,0,1.16-3.3l-.174-2.105a4.411,4.411,0,0,0-4.513-4.111,4.292,4.292,0,0,0-4.056,4.639l.19,2.284a4.278,4.278,0,0,0,1.685,3.062,9.066,9.066,0,0,0-5.357,6.77,1.846,1.846,0,0,0,1.992,2.117l13.853-1.145a1.845,1.845,0,0,0,1.618-2.416A9.07,9.07,0,0,0,195.667,114.687Z" transform="translate(-174.049 -91.074)"/>
          <g id="Group_270" data-name="Group 270" transform="translate(37.316 10.827)">
            <path id="Path_668" data-name="Path 668" class="cls-19" d="M279.369,96.065l-17.675,1.461a2.628,2.628,0,0,0-2.4,2.836l.717,8.685a2.628,2.628,0,0,0,2.836,2.4l1.727-.143s2.528,2.773,3.437,3.633a1.573,1.573,0,0,0,2.3-.19c.754-1,2.794-4.148,2.794-4.148l7.419-.613a2.628,2.628,0,0,0,2.4-2.836l-.717-8.685A2.63,2.63,0,0,0,279.369,96.065Z" transform="translate(-259.281 -96.056)"/>
            <path id="Path_669" data-name="Path 669" class="cls-20" d="M269.512,106.45a1.093,1.093,0,0,1-.088-2.182l14.331-1.184a1.093,1.093,0,1,1,.179,2.178L269.6,106.447C269.573,106.449,269.541,106.45,269.512,106.45Z" transform="translate(-265.143 -100.561)"/>
            <path id="Path_670" data-name="Path 670" class="cls-20" d="M270.381,116.934a1.093,1.093,0,0,1-.088-2.182l14.329-1.184a1.093,1.093,0,1,1,.18,2.178l-14.331,1.184C270.442,116.933,270.41,116.934,270.381,116.934Z" transform="translate(-265.7 -107.285)"/>
            <path id="Path_671" data-name="Path 671" class="cls-20" d="M271.246,128.587a1.093,1.093,0,0,1-.088-2.182l6.462-.534a1.093,1.093,0,1,1,.18,2.178l-6.462.534C271.308,128.586,271.277,128.587,271.246,128.587Z" transform="translate(-266.255 -115.177)"/>
          </g>
          <path id="Path_672" data-name="Path 672" class="cls-19" d="M379.223,104.861a7.951,7.951,0,0,0-1.956-4.607l-.155-1.867a6.421,6.421,0,0,0-5.8-5.863l-.047-.551a1.125,1.125,0,1,0-2.243.185l.045.551a6.422,6.422,0,0,0-4.761,6.736l.154,1.866h0a7.992,7.992,0,0,0-1.167,4.866l.067.81a.752.752,0,0,0,.81.687l3.169-.262a.633.633,0,0,0,.3.63,6.434,6.434,0,0,0,7.6-.629.632.632,0,0,0,.191-.67l3.175-.262a.75.75,0,0,0,.686-.81Z" transform="translate(-288.66 -81.948)"/>
        </g>
        <path id="Path_673" data-name="Path 673" class="cls-5" d="M357.753,129.147a3.387,3.387,0,1,1-3.654-3.1A3.386,3.386,0,0,1,357.753,129.147Z" transform="translate(-280.788 -104.46)"/>
      </g>
      <g id="Group_273" data-name="Group 273" transform="translate(202.127 40.882)">
        <path id="Path_674" data-name="Path 674" class="cls-21" d="M521.948,88,494,84.659a2.183,2.183,0,0,1-1.908-2.426l3.346-27.949a2.181,2.181,0,0,1,2.425-1.907l27.949,3.345a2.182,2.182,0,0,1,1.908,2.426L524.373,86.1A2.182,2.182,0,0,1,521.948,88Z" transform="translate(-492.074 -52.36)"/>
        <path id="Path_675" data-name="Path 675" class="cls-22" d="M501.171,86.279,504,62.61a1.321,1.321,0,0,1,1.468-1.154l23.668,2.833a1.32,1.32,0,0,1,1.154,1.468l-2.832,23.669a1.321,1.321,0,0,1-1.469,1.154l-23.668-2.832A1.321,1.321,0,0,1,501.171,86.279Z" transform="translate(-497.903 -58.188)"/>
        <path id="Path_676" data-name="Path 676" class="cls-23" d="M523.586,107.606l-2.909,2.287a1.231,1.231,0,0,1-1.73-.207h0a1.233,1.233,0,0,0-1.731-.207l-4.306,3.387a1.232,1.232,0,0,0,.614,2.192l.507.06,10.14,1.214,5.7.682a1.232,1.232,0,0,0,1.115-1.985l-5.674-7.216A1.232,1.232,0,0,0,523.586,107.606Z" transform="translate(-505.137 -87.626)"/>
        <circle id="Ellipse_24" data-name="Ellipse 24" class="cls-23" cx="2.17" cy="2.17" r="2.17" transform="translate(8.901 12.665)"/>
      </g>
      <g id="Group_274" data-name="Group 274" transform="translate(69.207 97.023)">
        <path id="Path_677" data-name="Path 677" class="cls-24" d="M157.556,209.155l-32.609,10.328a5.071,5.071,0,0,0-3.3,6.363l6.724,21.231a5.07,5.07,0,0,0,6.364,3.3l3.186-1.009s5.944,4.13,8.02,5.356a3.034,3.034,0,0,0,4.241-1.343c.991-2.2,3.474-9,3.474-9l13.687-4.336a5.068,5.068,0,0,0,3.3-6.363l-6.724-21.231A5.07,5.07,0,0,0,157.556,209.155Z" transform="translate(-121.407 -208.918)"/>
        <path id="Path_678" data-name="Path 678" class="cls-25" d="M171.37,234.571l-26.438,8.373a1.639,1.639,0,1,1-.99-3.125l26.437-8.373a1.639,1.639,0,1,1,.99,3.125Z" transform="translate(-135.127 -223.318)"/>
        <path id="Path_679" data-name="Path 679" class="cls-25" d="M177.956,255.368l-26.437,8.373a1.639,1.639,0,1,1-.989-3.126l26.437-8.373a1.639,1.639,0,1,1,.989,3.125Z" transform="translate(-139.352 -236.658)"/>
        <path id="Path_680" data-name="Path 680" class="cls-25" d="M170.027,288.989l-11.919,3.774a1.639,1.639,0,0,1-.99-3.125l11.921-3.775a1.639,1.639,0,0,1,.989,3.126Z" transform="translate(-143.578 -258.221)"/>
      </g>
      <g id="Group_275" data-name="Group 275" transform="translate(189.14 104.419)">
        <path id="Path_681" data-name="Path 681" class="cls-26" d="M484.7,233.7l-2.946,4.788L480.1,231.55a2.612,2.612,0,0,0-3.146-1.935l-19.087,4.548a2.611,2.611,0,0,0-1.935,3.145l4.547,19.088a2.611,2.611,0,0,0,3.146,1.935l19.087-4.547a2.613,2.613,0,0,0,1.935-3.146l-1.652-6.934,4.788,2.946a1.558,1.558,0,0,0,2.332-1.688l-2.575-10.81A1.558,1.558,0,0,0,484.7,233.7Z" transform="translate(-455.858 -229.543)"/>
        <path id="Path_682" data-name="Path 682" class="cls-19" d="M486.609,255.444l6.974,4.291-4.291,6.974" transform="translate(-475.582 -246.156)"/>
      </g>
      <g id="Group_276" data-name="Group 276" transform="translate(40.023 78.956)">
        <path id="Path_683" data-name="Path 683" class="cls-27" d="M56.741,171.793l-5.628-11.786a2.59,2.59,0,0,0-4.778.253l-6.157,17.413a2.589,2.589,0,0,0,3.556,3.2l11.786-5.628A2.59,2.59,0,0,0,56.741,171.793Z" transform="translate(-40.023 -158.534)"/>
        <path id="Path_684" data-name="Path 684" class="cls-19" d="M60.438,184.479l-1.364-2.154.087-.244a.567.567,0,0,0-1.069-.378L56.185,187.1a3.859,3.859,0,0,0-1.443-.889c-1.454-.514-2.9-.165-3.237.78s.573,2.126,2.026,2.64c1.435.507,2.863.172,3.221-.745,0-.01.009-.017.013-.027l1.333-3.769.8,1.262a.671.671,0,0,0,1.2-.135l.408-1.153A.673.673,0,0,0,60.438,184.479Z" transform="translate(-47.344 -173.153)"/>
      </g>
      <g id="Group_277" data-name="Group 277" transform="translate(54.018 34.465)">
        <path id="Path_685" data-name="Path 685" class="cls-5" d="M93.884,39.767a7.594,7.594,0,1,1-9.534-4.945A7.594,7.594,0,0,1,93.884,39.767Z" transform="translate(-79.049 -34.465)"/>
        <path id="Path_686" data-name="Path 686" class="cls-19" d="M94.67,44.794A2.708,2.708,0,0,0,90.9,45.888a2.707,2.707,0,0,0-3.709,1.275,2.758,2.758,0,0,0,1.282,3.569l3.8,1.971a1.062,1.062,0,0,0,1.431-.453l1.971-3.8A2.761,2.761,0,0,0,94.67,44.794Z" transform="translate(-84.119 -40.854)"/>
      </g>
      <g id="Group_278" data-name="Group 278" transform="translate(254.488 220.82)">
        <circle id="Ellipse_25" data-name="Ellipse 25" class="cls-5" cx="5.093" cy="5.093" r="5.093"/>
        <path id="Path_687" data-name="Path 687" class="cls-19" d="M650.922,563.163a54.008,54.008,0,0,0-4.206-3.158,1.849,1.849,0,0,0-1.448,2.091l.4,2.842a.712.712,0,0,0,.8.605l2.841-.406A1.848,1.848,0,0,0,650.922,563.163Z" transform="translate(-642.682 -557.882)"/>
      </g>
      <g id="Group_280" data-name="Group 280" transform="translate(244.871 75.032)">
        <path id="Path_688" data-name="Path 688" class="cls-28" d="M629.794,160.837a9.614,9.614,0,1,1-5.277-12.531A9.616,9.616,0,0,1,629.794,160.837Z" transform="translate(-611.273 -147.592)"/>
        <g id="Group_279" data-name="Group 279" transform="translate(3.216 4.27)">
          <path id="Path_689" data-name="Path 689" class="cls-19" d="M634.579,159.87a1.058,1.058,0,0,0-1.483-.122,17,17,0,0,1-2.864,2.3l-.911-.371a.149.149,0,0,0-.194.081l-1.958,4.8a.149.149,0,0,0,.082.194l.683.278a2.593,2.593,0,0,0,1.6,2.109l.4.164,2.635,1.073.59.24a1.048,1.048,0,0,0,1.357-1.393l.425.173a5.717,5.717,0,0,1,2.326-2.132,1.052,1.052,0,0,0-.577-1.369l-.008,0a1.041,1.041,0,0,0,.583-.574,1.052,1.052,0,0,0-.576-1.368l-3.709-1.511C633.892,161.7,635.241,160.622,634.579,159.87Z" transform="translate(-624.678 -159.5)"/>
          <path id="Path_690" data-name="Path 690" class="cls-19" d="M620.478,167.86l1.235.5a.379.379,0,0,0,.494-.208l2-4.912a.379.379,0,0,0-.208-.494l-1.235-.5a.379.379,0,0,0-.494.208l-2,4.912A.379.379,0,0,0,620.478,167.86Z" transform="translate(-620.242 -161.243)"/>
        </g>
      </g>
      <g id="Group_282" data-name="Group 282" transform="translate(87.592 156.247)">
        <circle id="Ellipse_26" data-name="Ellipse 26" class="cls-29" cx="13.06" cy="13.06" r="13.06"/>
        <g id="Group_281" data-name="Group 281" transform="translate(4.881 4.801)">
          <path id="Path_691" data-name="Path 691" class="cls-19" d="M200.016,387.482a1.439,1.439,0,0,0-1.662,1.154,23.008,23.008,0,0,1-1.011,4.886l-1.276.4a.2.2,0,0,0-.133.254l2.1,6.726a.2.2,0,0,0,.254.132l.956-.3a3.526,3.526,0,0,0,3.5.825l.562-.175L207,400.232l.825-.259a1.424,1.424,0,0,0,.218-2.632l.594-.185a7.761,7.761,0,0,1,.6-4.245,1.432,1.432,0,0,0-1.788-.937l-.009,0a1.42,1.42,0,0,0-1.672-2.041l-5.193,1.622C200.875,389.987,201.361,387.7,200.016,387.482Z" transform="translate(-192.469 -387.462)"/>
          <path id="Path_692" data-name="Path 692" class="cls-19" d="M189.105,414l1.73-.54a.516.516,0,0,0,.339-.645l-2.149-6.878a.515.515,0,0,0-.645-.337l-1.73.541a.513.513,0,0,0-.337.644l2.149,6.877A.513.513,0,0,0,189.105,414Z" transform="translate(-186.289 -399.077)"/>
        </g>
      </g>
    </g>
  </g>
</svg>
